M48
;Layer_Color=9474304
;FILE_FORMAT=4:4
METRIC,LZ
;TYPE=PLATED
T1F00S00C0.3000
T2F00S00C0.9700
T3F00S00C1.0000
T4F00S00C1.1000
T5F00S00C1.2000
%
T01
X003845Y0026975
X0040175Y002685
X0041825Y0027475
X0041975Y0029575
X0042875Y0031
X0043525Y00334
X003915Y003265
X00378Y0032675
X00367768Y00338767
X00356017Y00332266
X00348Y00324043
X0034875Y00360131
X00373Y0036875
X0037975Y00377
X0039Y0038025
X00365Y00381
X0037725Y0041275
X00416Y0041075
X0045425Y0040675
X0045625Y0042525
Y0043625
X0046525Y0044625
X0044025Y0045375
X0040175Y0046675
X00385Y00456
X00371Y00458
X0033925Y0043925
X004455Y0038725
Y0037625
X004895Y0037775
X004945Y00423
X005045Y00433
X004945Y00443
X005145
Y00423
X00539Y0043025
X00545777Y00441521
X005455Y004515
X005095Y0046975
X005735Y00392
X005895Y003915
X00607Y0039175
X00534Y003475
X0052125Y003275
X005205Y002895
X00534Y002735
X0031375Y003065
Y0033775
X002955Y00351
X0030175Y0035875
X00295Y00367
X0031725
X0026975Y003735
Y003585
X0025475
X0023975
Y003735
Y003885
X0025475
X0026975
X0025475Y003735
X0025325Y0033175
X00253Y00321
X002255Y0032125
X0020775Y0030425
X002325Y0029175
Y0027425
X00274263Y00311015
X0029375Y0029175
X00276Y00429
X00265
X0023425Y004245
X002275Y0043175
X0020125Y0042275
X001865Y003865
X001695Y003755
X0016975Y003645
X0016175Y003355
X00147Y00328
X0012925Y00334
X0012825Y0038025
X0011425Y0037975
X0009975
X00027Y00379
X000195Y0040575
X0005325Y0045925
X0008275Y0043875
X00149Y004375
X0018875Y004665
X002465Y004595
X000245Y00313
X0002175Y004765
X0000675
X0004325
X0006175
X000815
X0010175
X0012175
X0014175
X0015675Y004865
Y005065
Y005265
Y005465
Y005665
Y005865
Y006065
Y006265
X0015675Y006465
X001845Y0056625
X00215Y0054675
X0025825Y0052075
X0028075Y0052125
X0030325
X003135Y004955
X002465Y0049425
X0024625Y0047625
X002885Y005795
X0033175Y0058075
X003515Y0057975
X0037125Y0059375
X003815Y00584
X0043375Y00584
X0043Y00521
X0040625Y0052075
X0038375
X0039275Y004955
X0042075Y0049325
X004205Y004775
X004605Y004865
X004895Y0049275
X00493Y0050275
X005055Y005
X005565Y0049825
Y0048525
X003655Y0048825
T02
X0004065Y0028575
X0011685
T03
X0058025Y001765
X0004025
T04
X0030065Y0061675
X0032605
X0035145
X0037685
T05
X00578Y00291
Y00326
Y00361
X00578Y005375
Y005725
Y006075
M30
