G04*
G04 #@! TF.GenerationSoftware,Altium Limited,Altium Designer,19.1.8 (144)*
G04*
G04 Layer_Color=8388736*
%FSLAX44Y44*%
%MOMM*%
G71*
G01*
G75*
%ADD15C,3.5000*%
%ADD16R,4.3000X1.2500*%
%ADD17R,1.4620X0.2394*%
%ADD18R,2.5000X3.4000*%
%ADD19R,2.5000X1.1000*%
%ADD20R,1.5000X0.5000*%
%ADD21R,0.9000X0.4000*%
%ADD22R,0.7000X0.7000*%
%ADD23R,1.9700X0.5680*%
%ADD24R,2.2000X1.5000*%
%ADD25R,1.3970X1.1938*%
%ADD26R,2.0000X1.8500*%
%ADD27R,2.0000X1.9000*%
%ADD28R,1.7000X2.2000*%
%ADD29R,1.1000X0.6000*%
%ADD30R,0.2394X1.4620*%
%ADD31R,3.2500X3.2500*%
%ADD32R,0.4000X0.9000*%
%ADD33R,0.7000X0.7000*%
%ADD34R,0.9500X0.9500*%
%ADD35R,0.9500X0.9500*%
%ADD36R,1.4620X0.5680*%
%ADD37R,1.2954X2.3876*%
%ADD38R,4.5000X4.5000*%
%ADD39R,0.4000X0.8500*%
%ADD40R,0.8500X0.4000*%
%ADD41P,0.9900X4X270.0*%
%ADD42R,0.5680X1.4549*%
%ADD43C,0.1000*%
%ADD44C,2.3000*%
%ADD45C,2.1000*%
%ADD46R,2.1000X2.1000*%
%ADD47C,1.6000*%
%ADD48R,1.6000X1.6000*%
%ADD49C,0.8000*%
%ADD50C,0.7000*%
G36*
X310250Y324250D02*
D01*
D02*
G37*
G36*
X345250Y401500D02*
D01*
D02*
G37*
G36*
X211500Y558500D02*
X218500D01*
Y543250D01*
X211500D01*
Y558500D01*
D02*
G37*
G36*
X295000Y599000D02*
X306000D01*
Y586000D01*
X295000D01*
Y599000D01*
D02*
G37*
G36*
X487500Y414500D02*
X521500D01*
Y405500D01*
X487500D01*
Y414500D01*
D02*
G37*
G36*
X477000Y450000D02*
X486000D01*
Y416000D01*
X477000D01*
Y450000D01*
D02*
G37*
G36*
X523000D02*
X532000D01*
Y416000D01*
X523000D01*
Y450000D01*
D02*
G37*
G36*
X487500Y460500D02*
X521500D01*
Y451500D01*
X487500D01*
Y460500D01*
D02*
G37*
G36*
X422000Y587500D02*
X437250D01*
Y580500D01*
X422000D01*
Y587500D01*
D02*
G37*
D15*
X40000Y40000D02*
D03*
X580000D02*
D03*
X500000Y614000D02*
D03*
X230000D02*
D03*
D16*
X30750Y620750D02*
D03*
Y506250D02*
D03*
D17*
X416164Y349500D02*
D03*
Y354500D02*
D03*
Y379500D02*
D03*
Y374500D02*
D03*
Y369500D02*
D03*
Y364500D02*
D03*
Y359500D02*
D03*
Y344500D02*
D03*
Y339500D02*
D03*
Y334500D02*
D03*
Y329500D02*
D03*
Y324500D02*
D03*
X331836D02*
D03*
Y329500D02*
D03*
Y334500D02*
D03*
Y339500D02*
D03*
Y344500D02*
D03*
Y349500D02*
D03*
Y354500D02*
D03*
Y359500D02*
D03*
Y364500D02*
D03*
Y369500D02*
D03*
Y374500D02*
D03*
Y379500D02*
D03*
D18*
X105750Y356000D02*
D03*
D19*
X47750Y333000D02*
D03*
Y356000D02*
D03*
Y379000D02*
D03*
D20*
X575250Y443000D02*
D03*
Y449500D02*
D03*
Y462500D02*
D03*
Y456000D02*
D03*
Y436500D02*
D03*
D21*
X481500Y433000D02*
D03*
X527500Y448000D02*
D03*
Y443000D02*
D03*
Y438000D02*
D03*
Y433000D02*
D03*
Y428000D02*
D03*
Y423000D02*
D03*
Y418000D02*
D03*
X481500D02*
D03*
Y423000D02*
D03*
Y428000D02*
D03*
Y438000D02*
D03*
Y443000D02*
D03*
Y448000D02*
D03*
D22*
X534000Y303500D02*
D03*
Y313500D02*
D03*
X129250Y344750D02*
D03*
Y355750D02*
D03*
X24500Y322000D02*
D03*
Y333000D02*
D03*
X489500Y387000D02*
D03*
Y398000D02*
D03*
X477250Y488500D02*
D03*
Y478500D02*
D03*
X463750Y477000D02*
D03*
Y467000D02*
D03*
X465750Y406750D02*
D03*
Y417750D02*
D03*
X434500Y376250D02*
D03*
Y387250D02*
D03*
X313750Y327750D02*
D03*
Y316750D02*
D03*
X302250Y327750D02*
D03*
Y316750D02*
D03*
X370500Y428750D02*
D03*
Y439750D02*
D03*
X534000Y292500D02*
D03*
Y282500D02*
D03*
X202000Y361000D02*
D03*
Y372000D02*
D03*
X180750Y364500D02*
D03*
Y375500D02*
D03*
X314250Y398750D02*
D03*
Y388750D02*
D03*
X534000Y334250D02*
D03*
Y324250D02*
D03*
X82750Y427750D02*
D03*
Y416750D02*
D03*
X149000Y427750D02*
D03*
Y416750D02*
D03*
X216000Y321500D02*
D03*
Y332500D02*
D03*
X204000Y464250D02*
D03*
Y453250D02*
D03*
X535500Y540000D02*
D03*
Y530000D02*
D03*
X361750Y281750D02*
D03*
Y291750D02*
D03*
X375000Y281750D02*
D03*
Y291750D02*
D03*
X215000Y555000D02*
D03*
Y566000D02*
D03*
D23*
X505138Y302150D02*
D03*
Y314850D02*
D03*
X455862Y327550D02*
D03*
Y314850D02*
D03*
Y302150D02*
D03*
Y289450D02*
D03*
X505138D02*
D03*
Y327550D02*
D03*
D24*
X361750Y566250D02*
D03*
Y521250D02*
D03*
X451750Y566250D02*
D03*
Y521250D02*
D03*
X234000Y566000D02*
D03*
Y521000D02*
D03*
X324000Y566000D02*
D03*
Y521000D02*
D03*
D25*
X175500Y319750D02*
D03*
X197500D02*
D03*
Y335750D02*
D03*
X175500D02*
D03*
D26*
X601750Y460750D02*
D03*
Y438250D02*
D03*
D27*
Y489500D02*
D03*
Y409500D02*
D03*
D28*
X576250Y480500D02*
D03*
Y418500D02*
D03*
D29*
X300500Y596000D02*
D03*
Y589000D02*
D03*
D30*
X401500Y309836D02*
D03*
X396500D02*
D03*
X391500D02*
D03*
X386500D02*
D03*
X381500D02*
D03*
X376500D02*
D03*
X371500D02*
D03*
X366500D02*
D03*
X361500D02*
D03*
X356500D02*
D03*
X351500D02*
D03*
X346500D02*
D03*
Y394164D02*
D03*
X351500D02*
D03*
X356500D02*
D03*
X361500D02*
D03*
X366500D02*
D03*
X371500D02*
D03*
X376500D02*
D03*
X381500D02*
D03*
X386500D02*
D03*
X391500D02*
D03*
X396500D02*
D03*
X401500D02*
D03*
D31*
X504500Y433000D02*
D03*
D32*
X489500Y456000D02*
D03*
X494500D02*
D03*
X499500D02*
D03*
X504500D02*
D03*
X509500D02*
D03*
X514500D02*
D03*
X519500D02*
D03*
Y410000D02*
D03*
X514500D02*
D03*
X509500D02*
D03*
X504500D02*
D03*
X499500D02*
D03*
X494500D02*
D03*
X489500D02*
D03*
D33*
X326000Y594000D02*
D03*
X316000D02*
D03*
X139250Y368750D02*
D03*
X129250D02*
D03*
X361500Y593750D02*
D03*
X351500D02*
D03*
X346250Y429000D02*
D03*
X357250D02*
D03*
X368250Y417000D02*
D03*
X357250D02*
D03*
X393750Y292000D02*
D03*
X404750D02*
D03*
X393750Y280750D02*
D03*
X404750D02*
D03*
X396750Y456000D02*
D03*
X407750D02*
D03*
X196500Y386500D02*
D03*
X207500D02*
D03*
X334500Y413000D02*
D03*
X344500D02*
D03*
X95000Y416750D02*
D03*
X106000D02*
D03*
X41750Y459250D02*
D03*
X30750D02*
D03*
X19750Y416500D02*
D03*
X30750D02*
D03*
X263250Y321000D02*
D03*
X274250D02*
D03*
X263250Y331750D02*
D03*
X274250D02*
D03*
X276000Y418750D02*
D03*
X265000D02*
D03*
X195000Y304250D02*
D03*
X184000D02*
D03*
X240750Y433250D02*
D03*
X251750D02*
D03*
X243500Y417250D02*
D03*
X254500D02*
D03*
X402250Y584000D02*
D03*
X392250D02*
D03*
X203750Y566000D02*
D03*
X193750D02*
D03*
X425500Y584000D02*
D03*
X414500D02*
D03*
D34*
X147000Y339250D02*
D03*
Y353250D02*
D03*
X355501Y457999D02*
D03*
Y443999D02*
D03*
X189249Y439251D02*
D03*
Y453251D02*
D03*
X30749Y432251D02*
D03*
Y446251D02*
D03*
X189501Y422749D02*
D03*
Y408749D02*
D03*
D35*
X432250Y493250D02*
D03*
X446250D02*
D03*
Y477000D02*
D03*
X432250D02*
D03*
X68249Y416749D02*
D03*
X54249D02*
D03*
X134749D02*
D03*
X120749D02*
D03*
X207500Y496250D02*
D03*
X193500D02*
D03*
Y479000D02*
D03*
X207500D02*
D03*
X263000Y291750D02*
D03*
X249000D02*
D03*
Y274250D02*
D03*
X263000D02*
D03*
D36*
X332191Y495550D02*
D03*
Y482850D02*
D03*
Y470150D02*
D03*
Y457450D02*
D03*
X260309D02*
D03*
Y470150D02*
D03*
Y482850D02*
D03*
Y495550D02*
D03*
D37*
X408025Y433500D02*
D03*
X388975D02*
D03*
D38*
X254750Y373500D02*
D03*
D39*
X235250Y403250D02*
D03*
X241750D02*
D03*
X248250D02*
D03*
X254750D02*
D03*
X261250D02*
D03*
X267750D02*
D03*
X274250D02*
D03*
Y343750D02*
D03*
X267750D02*
D03*
X261250D02*
D03*
X254750D02*
D03*
X248250D02*
D03*
X241750D02*
D03*
X235250D02*
D03*
D40*
X284500Y393000D02*
D03*
Y386500D02*
D03*
Y380000D02*
D03*
Y373500D02*
D03*
Y367000D02*
D03*
Y360500D02*
D03*
Y354000D02*
D03*
X225000D02*
D03*
Y360500D02*
D03*
Y367000D02*
D03*
Y373500D02*
D03*
Y380000D02*
D03*
Y386500D02*
D03*
Y393000D02*
D03*
D41*
X172139Y408861D02*
D03*
X164361Y416639D02*
D03*
D42*
X480200Y571213D02*
D03*
X492900D02*
D03*
X505600D02*
D03*
X518300D02*
D03*
Y516786D02*
D03*
X505600D02*
D03*
X492900D02*
D03*
X480200D02*
D03*
D43*
X500000Y614000D02*
D03*
X230000D02*
D03*
X580000Y40000D02*
D03*
X40000D02*
D03*
D44*
X578000Y537500D02*
D03*
Y572500D02*
D03*
X578000Y291000D02*
D03*
Y326000D02*
D03*
X578000Y607500D02*
D03*
X578000Y361000D02*
D03*
D45*
X351450Y616750D02*
D03*
X326050D02*
D03*
X376850D02*
D03*
D46*
X300650D02*
D03*
D47*
X580250Y176500D02*
D03*
D48*
X40250D02*
D03*
X40650Y285750D02*
D03*
X116850D02*
D03*
D49*
X504500Y433000D02*
D03*
X494500Y443000D02*
D03*
X514500D02*
D03*
Y423000D02*
D03*
X494500D02*
D03*
X269750Y373500D02*
D03*
X254750Y388500D02*
D03*
X239750Y373500D02*
D03*
X254750Y358500D02*
D03*
X269750D02*
D03*
X239750D02*
D03*
X269750Y388500D02*
D03*
X239750D02*
D03*
X254750Y373500D02*
D03*
D50*
X589500Y391500D02*
D03*
X607000Y391750D02*
D03*
X573500Y392000D02*
D03*
X556500Y485250D02*
D03*
Y498250D02*
D03*
M02*
