G04*
G04 #@! TF.GenerationSoftware,Altium Limited,Altium Designer,19.1.8 (144)*
G04*
G04 Layer_Physical_Order=3*
G04 Layer_Color=16440176*
%FSLAX44Y44*%
%MOMM*%
G71*
G01*
G75*
%ADD83C,0.7000*%
G36*
X613451Y2549D02*
X2549D01*
Y471165D01*
X3819Y471844D01*
X4604Y471319D01*
X6750Y470892D01*
X8896Y471319D01*
X10715Y472535D01*
X11931Y474354D01*
X12358Y476500D01*
X11931Y478646D01*
X10872Y480230D01*
X11279Y481500D01*
X17221D01*
X17628Y480230D01*
X16569Y478646D01*
X16142Y476500D01*
X16569Y474354D01*
X17785Y472535D01*
X19604Y471319D01*
X21750Y470892D01*
X23896Y471319D01*
X25715Y472535D01*
X26931Y474354D01*
X27358Y476500D01*
X26931Y478646D01*
X25872Y480230D01*
X26279Y481500D01*
X38721D01*
X39128Y480230D01*
X38069Y478646D01*
X37642Y476500D01*
X38069Y474354D01*
X39285Y472535D01*
X41104Y471319D01*
X43250Y470892D01*
X45396Y471319D01*
X47215Y472535D01*
X48431Y474354D01*
X48858Y476500D01*
X48431Y478646D01*
X47372Y480230D01*
X47779Y481500D01*
X57221D01*
X57628Y480230D01*
X56569Y478646D01*
X56142Y476500D01*
X56569Y474354D01*
X57785Y472535D01*
X59604Y471319D01*
X61750Y470892D01*
X63896Y471319D01*
X65715Y472535D01*
X66931Y474354D01*
X67358Y476500D01*
X66931Y478646D01*
X65873Y480230D01*
X66279Y481500D01*
X76971D01*
X77378Y480230D01*
X76319Y478646D01*
X75892Y476500D01*
X76319Y474354D01*
X77535Y472535D01*
X79354Y471319D01*
X81500Y470892D01*
X83646Y471319D01*
X85465Y472535D01*
X86681Y474354D01*
X87108Y476500D01*
X86681Y478646D01*
X85623Y480230D01*
X86029Y481500D01*
X97221D01*
X97627Y480230D01*
X96569Y478646D01*
X96142Y476500D01*
X96569Y474354D01*
X97785Y472535D01*
X99604Y471319D01*
X101750Y470892D01*
X103896Y471319D01*
X105715Y472535D01*
X106931Y474354D01*
X107358Y476500D01*
X106931Y478646D01*
X105872Y480230D01*
X106279Y481500D01*
X117221D01*
X117627Y480230D01*
X116569Y478646D01*
X116142Y476500D01*
X116569Y474354D01*
X117785Y472535D01*
X119604Y471319D01*
X121750Y470892D01*
X123896Y471319D01*
X125715Y472535D01*
X126931Y474354D01*
X127358Y476500D01*
X126931Y478646D01*
X125872Y480230D01*
X126279Y481500D01*
X137221D01*
X137627Y480230D01*
X136569Y478646D01*
X136142Y476500D01*
X136569Y474354D01*
X137785Y472535D01*
X139604Y471319D01*
X141750Y470892D01*
X143896Y471319D01*
X145715Y472535D01*
X146931Y474354D01*
X147358Y476500D01*
X146931Y478646D01*
X145872Y480230D01*
X146279Y481500D01*
X151750D01*
Y481971D01*
X153020Y482378D01*
X154604Y481319D01*
X156750Y480892D01*
X158896Y481319D01*
X160715Y482535D01*
X161931Y484354D01*
X162358Y486500D01*
X161931Y488646D01*
X160715Y490465D01*
X158896Y491681D01*
X156750Y492108D01*
X154604Y491681D01*
X153020Y490622D01*
X151750Y491029D01*
Y501971D01*
X153020Y502378D01*
X154604Y501319D01*
X156750Y500892D01*
X158896Y501319D01*
X160715Y502535D01*
X161931Y504354D01*
X162358Y506500D01*
X161931Y508646D01*
X160715Y510465D01*
X158896Y511681D01*
X156750Y512108D01*
X154604Y511681D01*
X153020Y510622D01*
X151750Y511029D01*
Y521971D01*
X153020Y522378D01*
X154604Y521319D01*
X156750Y520892D01*
X158896Y521319D01*
X160715Y522535D01*
X161931Y524354D01*
X162358Y526500D01*
X161931Y528646D01*
X160715Y530465D01*
X158896Y531681D01*
X156750Y532108D01*
X154604Y531681D01*
X153020Y530622D01*
X151750Y531029D01*
Y541971D01*
X153020Y542378D01*
X154604Y541319D01*
X156750Y540892D01*
X158896Y541319D01*
X160715Y542535D01*
X161931Y544354D01*
X162358Y546500D01*
X161931Y548646D01*
X160715Y550465D01*
X158896Y551681D01*
X156750Y552108D01*
X154604Y551681D01*
X153020Y550622D01*
X151750Y551029D01*
Y561971D01*
X153020Y562378D01*
X154604Y561319D01*
X156750Y560892D01*
X158896Y561319D01*
X160715Y562535D01*
X161931Y564354D01*
X162358Y566500D01*
X161931Y568646D01*
X160715Y570465D01*
X158896Y571681D01*
X156750Y572108D01*
X154604Y571681D01*
X153020Y570622D01*
X151750Y571029D01*
Y581971D01*
X153020Y582378D01*
X154604Y581319D01*
X156750Y580892D01*
X158896Y581319D01*
X160715Y582535D01*
X161931Y584354D01*
X162358Y586500D01*
X161931Y588646D01*
X160715Y590465D01*
X158896Y591681D01*
X156750Y592108D01*
X154604Y591681D01*
X153020Y590622D01*
X151750Y591029D01*
Y601971D01*
X153020Y602378D01*
X154604Y601319D01*
X156750Y600892D01*
X158896Y601319D01*
X160715Y602535D01*
X161931Y604354D01*
X162358Y606500D01*
X161931Y608646D01*
X160715Y610465D01*
X158896Y611681D01*
X156750Y612108D01*
X154604Y611681D01*
X153020Y610622D01*
X151750Y611029D01*
Y621971D01*
X153020Y622378D01*
X154604Y621319D01*
X156750Y620892D01*
X158896Y621319D01*
X160715Y622535D01*
X161931Y624354D01*
X162358Y626500D01*
X161931Y628646D01*
X160715Y630465D01*
X158896Y631681D01*
X156750Y632108D01*
X154604Y631681D01*
X153020Y630622D01*
X151750Y631029D01*
Y641971D01*
X153020Y642377D01*
X154604Y641319D01*
X156750Y640892D01*
X158896Y641319D01*
X160715Y642535D01*
X161931Y644354D01*
X162358Y646500D01*
X161931Y648646D01*
X160905Y650181D01*
X161352Y651451D01*
X613451D01*
Y2549D01*
D02*
G37*
%LPC*%
G36*
X364250Y633750D02*
X285000D01*
Y601250D01*
X364250D01*
Y612493D01*
X365520Y612746D01*
X366368Y610698D01*
X368292Y608191D01*
X370798Y606268D01*
X373717Y605059D01*
X376850Y604646D01*
X379983Y605059D01*
X382902Y606268D01*
X385409Y608191D01*
X387332Y610698D01*
X388541Y613617D01*
X388954Y616750D01*
X388541Y619883D01*
X387332Y622802D01*
X385409Y625308D01*
X382902Y627232D01*
X379983Y628441D01*
X376850Y628854D01*
X373717Y628441D01*
X370798Y627232D01*
X368292Y625308D01*
X366368Y622802D01*
X365520Y620755D01*
X364250Y621007D01*
Y633750D01*
D02*
G37*
G36*
X578000Y620612D02*
X574606Y620165D01*
X571444Y618856D01*
X568728Y616772D01*
X566645Y614056D01*
X565335Y610894D01*
X564888Y607500D01*
X565335Y604106D01*
X566645Y600944D01*
X568728Y598228D01*
X571444Y596144D01*
X574606Y594835D01*
X578000Y594388D01*
X581394Y594835D01*
X584556Y596144D01*
X587272Y598228D01*
X589356Y600944D01*
X590665Y604106D01*
X591112Y607500D01*
X590665Y610894D01*
X589356Y614056D01*
X587272Y616772D01*
X584556Y618856D01*
X581394Y620165D01*
X578000Y620612D01*
D02*
G37*
G36*
X250000Y633750D02*
X210000D01*
Y593750D01*
X250000D01*
Y633750D01*
D02*
G37*
G36*
X480000D02*
X480000Y593750D01*
X520000Y593750D01*
X520000Y633750D01*
X480000Y633750D01*
D02*
G37*
G36*
X371250Y599358D02*
X369104Y598931D01*
X367285Y597715D01*
X366069Y595896D01*
X365642Y593750D01*
X366069Y591604D01*
X367285Y589785D01*
X369104Y588569D01*
X371250Y588142D01*
X373396Y588569D01*
X375215Y589785D01*
X376431Y591604D01*
X376858Y593750D01*
X376431Y595896D01*
X375215Y597715D01*
X373396Y598931D01*
X371250Y599358D01*
D02*
G37*
G36*
X433750Y589608D02*
X431604Y589181D01*
X429785Y587965D01*
X428569Y586146D01*
X428142Y584000D01*
X428569Y581854D01*
X429785Y580035D01*
X431604Y578819D01*
X433750Y578392D01*
X435896Y578819D01*
X437715Y580035D01*
X438931Y581854D01*
X439358Y584000D01*
X438931Y586146D01*
X437715Y587965D01*
X435896Y589181D01*
X433750Y589608D01*
D02*
G37*
G36*
X331750Y586358D02*
X329604Y585931D01*
X327785Y584715D01*
X326569Y582896D01*
X326142Y580750D01*
X326569Y578604D01*
X327785Y576785D01*
X329604Y575569D01*
X331750Y575142D01*
X333896Y575569D01*
X335715Y576785D01*
X336931Y578604D01*
X337358Y580750D01*
X336931Y582896D01*
X335715Y584715D01*
X333896Y585931D01*
X331750Y586358D01*
D02*
G37*
G36*
X351500Y585358D02*
X349354Y584931D01*
X347535Y583715D01*
X346319Y581896D01*
X345892Y579750D01*
X346319Y577604D01*
X347535Y575785D01*
X349354Y574569D01*
X351500Y574142D01*
X353646Y574569D01*
X355465Y575785D01*
X356681Y577604D01*
X357108Y579750D01*
X356681Y581896D01*
X355465Y583715D01*
X353646Y584931D01*
X351500Y585358D01*
D02*
G37*
G36*
X578000Y585612D02*
X574606Y585165D01*
X571444Y583856D01*
X568728Y581772D01*
X566645Y579056D01*
X565335Y575894D01*
X564888Y572500D01*
X565335Y569106D01*
X566645Y565944D01*
X568728Y563228D01*
X571444Y561144D01*
X574606Y559835D01*
X578000Y559388D01*
X581394Y559835D01*
X584556Y561144D01*
X587272Y563228D01*
X589356Y565944D01*
X590665Y569106D01*
X591112Y572500D01*
X590665Y575894D01*
X589356Y579056D01*
X587272Y581772D01*
X584556Y583856D01*
X581394Y585165D01*
X578000Y585612D01*
D02*
G37*
G36*
X215000Y552358D02*
X212854Y551931D01*
X211035Y550715D01*
X209819Y548896D01*
X209392Y546750D01*
X209819Y544604D01*
X211035Y542785D01*
X212854Y541569D01*
X215000Y541142D01*
X217146Y541569D01*
X218965Y542785D01*
X220181Y544604D01*
X220608Y546750D01*
X220181Y548896D01*
X218965Y550715D01*
X217146Y551931D01*
X215000Y552358D01*
D02*
G37*
G36*
X578000Y550612D02*
X574606Y550165D01*
X571444Y548856D01*
X568728Y546772D01*
X566645Y544056D01*
X565335Y540894D01*
X564888Y537500D01*
X565335Y534106D01*
X566645Y530944D01*
X568728Y528228D01*
X571444Y526144D01*
X574606Y524835D01*
X578000Y524388D01*
X581394Y524835D01*
X584556Y526144D01*
X587272Y528228D01*
X589356Y530944D01*
X590665Y534106D01*
X591112Y537500D01*
X590665Y540894D01*
X589356Y544056D01*
X587272Y546772D01*
X584556Y548856D01*
X581394Y550165D01*
X578000Y550612D01*
D02*
G37*
G36*
X303250Y526858D02*
X301104Y526431D01*
X299285Y525215D01*
X298069Y523396D01*
X297642Y521250D01*
X298069Y519104D01*
X299285Y517285D01*
X301104Y516069D01*
X303250Y515642D01*
X305396Y516069D01*
X307215Y517285D01*
X308431Y519104D01*
X308858Y521250D01*
X308431Y523396D01*
X307215Y525215D01*
X305396Y526431D01*
X303250Y526858D01*
D02*
G37*
G36*
X280750D02*
X278604Y526431D01*
X276785Y525215D01*
X275569Y523396D01*
X275142Y521250D01*
X275569Y519104D01*
X276785Y517285D01*
X278604Y516069D01*
X280750Y515642D01*
X282896Y516069D01*
X284715Y517285D01*
X285931Y519104D01*
X286358Y521250D01*
X285931Y523396D01*
X284715Y525215D01*
X282896Y526431D01*
X280750Y526858D01*
D02*
G37*
G36*
X430000Y526608D02*
X427854Y526181D01*
X426035Y524965D01*
X424819Y523146D01*
X424392Y521000D01*
X424819Y518854D01*
X426035Y517035D01*
X427854Y515819D01*
X430000Y515392D01*
X432146Y515819D01*
X433965Y517035D01*
X435181Y518854D01*
X435608Y521000D01*
X435181Y523146D01*
X433965Y524965D01*
X432146Y526181D01*
X430000Y526608D01*
D02*
G37*
G36*
X406250Y526358D02*
X404104Y525931D01*
X402285Y524715D01*
X401069Y522896D01*
X400642Y520750D01*
X401069Y518604D01*
X402285Y516785D01*
X404104Y515569D01*
X406250Y515142D01*
X408396Y515569D01*
X410215Y516785D01*
X411431Y518604D01*
X411858Y520750D01*
X411431Y522896D01*
X410215Y524715D01*
X408396Y525931D01*
X406250Y526358D01*
D02*
G37*
G36*
X383750D02*
X381604Y525931D01*
X379785Y524715D01*
X378569Y522896D01*
X378142Y520750D01*
X378569Y518604D01*
X379785Y516785D01*
X381604Y515569D01*
X383750Y515142D01*
X385896Y515569D01*
X387715Y516785D01*
X388931Y518604D01*
X389358Y520750D01*
X388931Y522896D01*
X387715Y524715D01*
X385896Y525931D01*
X383750Y526358D01*
D02*
G37*
G36*
X258250D02*
X256104Y525931D01*
X254285Y524715D01*
X253069Y522896D01*
X252642Y520750D01*
X253069Y518604D01*
X254285Y516785D01*
X256104Y515569D01*
X258250Y515142D01*
X260396Y515569D01*
X262215Y516785D01*
X263431Y518604D01*
X263858Y520750D01*
X263431Y522896D01*
X262215Y524715D01*
X260396Y525931D01*
X258250Y526358D01*
D02*
G37*
G36*
X556500Y503348D02*
X554549Y502960D01*
X552895Y501855D01*
X551790Y500201D01*
X551402Y498250D01*
X551790Y496299D01*
X552895Y494645D01*
X554549Y493540D01*
X556500Y493152D01*
X558451Y493540D01*
X560105Y494645D01*
X561210Y496299D01*
X561598Y498250D01*
X561210Y500201D01*
X560105Y501855D01*
X558451Y502960D01*
X556500Y503348D01*
D02*
G37*
G36*
X392750Y501108D02*
X390604Y500681D01*
X388785Y499465D01*
X387569Y497646D01*
X387142Y495500D01*
X387569Y493354D01*
X388785Y491535D01*
X390604Y490319D01*
X392750Y489892D01*
X394896Y490319D01*
X396715Y491535D01*
X397931Y493354D01*
X398358Y495500D01*
X397931Y497646D01*
X396715Y499465D01*
X394896Y500681D01*
X392750Y501108D01*
D02*
G37*
G36*
X246500Y499858D02*
X244354Y499431D01*
X242535Y498215D01*
X241319Y496396D01*
X240892Y494250D01*
X241319Y492104D01*
X242535Y490285D01*
X244354Y489069D01*
X246500Y488642D01*
X248646Y489069D01*
X250465Y490285D01*
X251681Y492104D01*
X252108Y494250D01*
X251681Y496396D01*
X250465Y498215D01*
X248646Y499431D01*
X246500Y499858D01*
D02*
G37*
G36*
X420750Y498858D02*
X418604Y498431D01*
X416785Y497215D01*
X415569Y495396D01*
X415142Y493250D01*
X415569Y491104D01*
X416785Y489285D01*
X418604Y488069D01*
X420750Y487642D01*
X422896Y488069D01*
X424715Y489285D01*
X425931Y491104D01*
X426358Y493250D01*
X425931Y495396D01*
X424715Y497215D01*
X422896Y498431D01*
X420750Y498858D01*
D02*
G37*
G36*
X493000Y508358D02*
X490854Y507931D01*
X489035Y506715D01*
X487819Y504896D01*
X487392Y502750D01*
X487819Y500604D01*
X488577Y499469D01*
X488007Y498061D01*
X487354Y497931D01*
X485535Y496715D01*
X484319Y494896D01*
X483892Y492750D01*
X484319Y490604D01*
X485535Y488785D01*
X487354Y487569D01*
X489500Y487142D01*
X491646Y487569D01*
X493465Y488785D01*
X494681Y490604D01*
X495108Y492750D01*
X494681Y494896D01*
X493923Y496031D01*
X494493Y497439D01*
X495146Y497569D01*
X496965Y498785D01*
X498181Y500604D01*
X498608Y502750D01*
X498181Y504896D01*
X496965Y506715D01*
X495146Y507931D01*
X493000Y508358D01*
D02*
G37*
G36*
X365500Y493858D02*
X363354Y493431D01*
X361535Y492215D01*
X360319Y490396D01*
X359892Y488250D01*
X360319Y486104D01*
X361535Y484285D01*
X363354Y483069D01*
X365500Y482642D01*
X367646Y483069D01*
X369465Y484285D01*
X370681Y486104D01*
X371108Y488250D01*
X370681Y490396D01*
X369465Y492215D01*
X367646Y493431D01*
X365500Y493858D01*
D02*
G37*
G36*
X460500Y492108D02*
X458354Y491681D01*
X456535Y490465D01*
X455319Y488646D01*
X454892Y486500D01*
X455319Y484354D01*
X456535Y482535D01*
X458354Y481319D01*
X460500Y480892D01*
X462646Y481319D01*
X464465Y482535D01*
X465681Y484354D01*
X466108Y486500D01*
X465681Y488646D01*
X464465Y490465D01*
X462646Y491681D01*
X460500Y492108D01*
D02*
G37*
G36*
X556500Y490348D02*
X554549Y489960D01*
X552895Y488855D01*
X551790Y487201D01*
X551402Y485250D01*
X551790Y483299D01*
X552895Y481645D01*
X554549Y480540D01*
X556500Y480152D01*
X558451Y480540D01*
X560105Y481645D01*
X561210Y483299D01*
X561598Y485250D01*
X561210Y487201D01*
X560105Y488855D01*
X558451Y489960D01*
X556500Y490348D01*
D02*
G37*
G36*
X420500Y483108D02*
X418354Y482681D01*
X416535Y481465D01*
X415319Y479646D01*
X414892Y477500D01*
X415319Y475354D01*
X416535Y473535D01*
X418354Y472319D01*
X420500Y471892D01*
X422646Y472319D01*
X424465Y473535D01*
X425681Y475354D01*
X426108Y477500D01*
X425681Y479646D01*
X424465Y481465D01*
X422646Y482681D01*
X420500Y483108D01*
D02*
G37*
G36*
X246250Y481858D02*
X244104Y481431D01*
X242285Y480215D01*
X241069Y478396D01*
X240642Y476250D01*
X241069Y474104D01*
X242285Y472285D01*
X244104Y471069D01*
X246250Y470642D01*
X248396Y471069D01*
X250215Y472285D01*
X251431Y474104D01*
X251858Y476250D01*
X251431Y478396D01*
X250215Y480215D01*
X248396Y481431D01*
X246250Y481858D01*
D02*
G37*
G36*
X509500Y475358D02*
X507354Y474931D01*
X505535Y473715D01*
X504319Y471896D01*
X503892Y469750D01*
X504319Y467604D01*
X505535Y465785D01*
X507354Y464569D01*
X509500Y464142D01*
X511646Y464569D01*
X513465Y465785D01*
X514681Y467604D01*
X515108Y469750D01*
X514681Y471896D01*
X513465Y473715D01*
X511646Y474931D01*
X509500Y475358D01*
D02*
G37*
G36*
X401750Y471848D02*
X399799Y471460D01*
X398145Y470355D01*
X397040Y468701D01*
X396652Y466750D01*
X397040Y464799D01*
X398145Y463145D01*
X399799Y462040D01*
X401750Y461652D01*
X403701Y462040D01*
X405355Y463145D01*
X406460Y464799D01*
X406848Y466750D01*
X406460Y468701D01*
X405355Y470355D01*
X403701Y471460D01*
X401750Y471848D01*
D02*
G37*
G36*
X188750Y472108D02*
X186604Y471681D01*
X184785Y470465D01*
X183569Y468646D01*
X183142Y466500D01*
X183569Y464354D01*
X184785Y462535D01*
X186604Y461319D01*
X188750Y460892D01*
X190896Y461319D01*
X192715Y462535D01*
X193931Y464354D01*
X194358Y466500D01*
X193931Y468646D01*
X192715Y470465D01*
X190896Y471681D01*
X188750Y472108D01*
D02*
G37*
G36*
X246500Y465108D02*
X244354Y464681D01*
X242535Y463465D01*
X241319Y461646D01*
X240892Y459500D01*
X241319Y457354D01*
X242535Y455535D01*
X244354Y454319D01*
X246500Y453892D01*
X248646Y454319D01*
X250465Y455535D01*
X251681Y457354D01*
X252108Y459500D01*
X251681Y461646D01*
X250465Y463465D01*
X248646Y464681D01*
X246500Y465108D01*
D02*
G37*
G36*
X53250Y464858D02*
X51104Y464431D01*
X49285Y463215D01*
X48069Y461396D01*
X47642Y459250D01*
X48069Y457104D01*
X49285Y455285D01*
X51104Y454069D01*
X53250Y453642D01*
X55396Y454069D01*
X57215Y455285D01*
X58431Y457104D01*
X58858Y459250D01*
X58431Y461396D01*
X57215Y463215D01*
X55396Y464431D01*
X53250Y464858D01*
D02*
G37*
G36*
X385000Y461608D02*
X382854Y461181D01*
X381035Y459965D01*
X379819Y458146D01*
X379392Y456000D01*
X379819Y453854D01*
X381035Y452035D01*
X382854Y450819D01*
X385000Y450392D01*
X387146Y450819D01*
X388965Y452035D01*
X390181Y453854D01*
X390608Y456000D01*
X390181Y458146D01*
X388965Y459965D01*
X387146Y461181D01*
X385000Y461608D01*
D02*
G37*
G36*
X440250Y459358D02*
X438104Y458931D01*
X436285Y457715D01*
X435069Y455896D01*
X434642Y453750D01*
X435069Y451604D01*
X436285Y449785D01*
X438104Y448569D01*
X440250Y448142D01*
X442396Y448569D01*
X444215Y449785D01*
X445431Y451604D01*
X445858Y453750D01*
X445431Y455896D01*
X444215Y457715D01*
X442396Y458931D01*
X440250Y459358D01*
D02*
G37*
G36*
X465250Y451858D02*
X463104Y451431D01*
X461285Y450215D01*
X460069Y448396D01*
X459642Y446250D01*
X460069Y444104D01*
X461285Y442285D01*
X463104Y441069D01*
X465250Y440642D01*
X467396Y441069D01*
X469215Y442285D01*
X470431Y444104D01*
X470858Y446250D01*
X470431Y448396D01*
X469215Y450215D01*
X467396Y451431D01*
X465250Y451858D01*
D02*
G37*
G36*
X514500Y448608D02*
X512354Y448181D01*
X510535Y446965D01*
X509319Y445146D01*
X508892Y443000D01*
X509319Y440854D01*
X510535Y439035D01*
X512354Y437819D01*
X514500Y437392D01*
X516646Y437819D01*
X518465Y439035D01*
X519681Y440854D01*
X520108Y443000D01*
X519681Y445146D01*
X518465Y446965D01*
X516646Y448181D01*
X514500Y448608D01*
D02*
G37*
G36*
X494500D02*
X492354Y448181D01*
X490535Y446965D01*
X489319Y445146D01*
X488892Y443000D01*
X489319Y440854D01*
X490535Y439035D01*
X492354Y437819D01*
X494500Y437392D01*
X496646Y437819D01*
X498465Y439035D01*
X499681Y440854D01*
X500108Y443000D01*
X499681Y445146D01*
X498465Y446965D01*
X496646Y448181D01*
X494500Y448608D01*
D02*
G37*
G36*
X545500Y457108D02*
X543354Y456681D01*
X541535Y455465D01*
X540319Y453646D01*
X539892Y451500D01*
X540319Y449354D01*
X541535Y447535D01*
X542255Y447053D01*
Y445783D01*
X541811Y445487D01*
X540596Y443667D01*
X540169Y441521D01*
X540596Y439375D01*
X541811Y437556D01*
X543631Y436341D01*
X545777Y435914D01*
X547923Y436341D01*
X549742Y437556D01*
X550957Y439375D01*
X551384Y441521D01*
X550957Y443667D01*
X549742Y445487D01*
X549021Y445968D01*
Y447238D01*
X549465Y447535D01*
X550681Y449354D01*
X551108Y451500D01*
X550681Y453646D01*
X549465Y455465D01*
X547646Y456681D01*
X545500Y457108D01*
D02*
G37*
G36*
X339250Y444858D02*
X337104Y444431D01*
X335285Y443215D01*
X334069Y441396D01*
X333642Y439250D01*
X334069Y437104D01*
X335285Y435285D01*
X337104Y434069D01*
X339250Y433642D01*
X341396Y434069D01*
X343215Y435285D01*
X344431Y437104D01*
X344858Y439250D01*
X344431Y441396D01*
X343215Y443215D01*
X341396Y444431D01*
X339250Y444858D01*
D02*
G37*
G36*
X82750Y444358D02*
X80604Y443931D01*
X78785Y442715D01*
X77569Y440896D01*
X77142Y438750D01*
X77569Y436604D01*
X78785Y434785D01*
X80604Y433569D01*
X82750Y433142D01*
X84896Y433569D01*
X86715Y434785D01*
X87931Y436604D01*
X88358Y438750D01*
X87931Y440896D01*
X86715Y442715D01*
X84896Y443931D01*
X82750Y444358D01*
D02*
G37*
G36*
X149000Y443108D02*
X146854Y442681D01*
X145035Y441465D01*
X143819Y439646D01*
X143392Y437500D01*
X143819Y435354D01*
X145035Y433535D01*
X146854Y432319D01*
X149000Y431892D01*
X151146Y432319D01*
X152965Y433535D01*
X154181Y435354D01*
X154608Y437500D01*
X154181Y439646D01*
X152965Y441465D01*
X151146Y442681D01*
X149000Y443108D01*
D02*
G37*
G36*
X504500Y438608D02*
X502354Y438181D01*
X500535Y436965D01*
X499319Y435146D01*
X498892Y433000D01*
X499319Y430854D01*
X500535Y429035D01*
X502354Y427819D01*
X504500Y427392D01*
X506646Y427819D01*
X508465Y429035D01*
X509681Y430854D01*
X510108Y433000D01*
X509681Y435146D01*
X508465Y436965D01*
X506646Y438181D01*
X504500Y438608D01*
D02*
G37*
G36*
X539000Y435858D02*
X536854Y435431D01*
X535035Y434215D01*
X533819Y432396D01*
X533392Y430250D01*
X533819Y428104D01*
X535035Y426285D01*
X536854Y425069D01*
X539000Y424642D01*
X541146Y425069D01*
X542965Y426285D01*
X544181Y428104D01*
X544608Y430250D01*
X544181Y432396D01*
X542965Y434215D01*
X541146Y435431D01*
X539000Y435858D01*
D02*
G37*
G36*
X276000Y434608D02*
X273854Y434181D01*
X272035Y432965D01*
X270819Y431146D01*
X270392Y429000D01*
X270819Y426854D01*
X272035Y425035D01*
X273854Y423819D01*
X276000Y423392D01*
X278146Y423819D01*
X279965Y425035D01*
X281181Y426854D01*
X281608Y429000D01*
X281181Y431146D01*
X279965Y432965D01*
X278146Y434181D01*
X276000Y434608D01*
D02*
G37*
G36*
X456250Y441858D02*
X454104Y441431D01*
X452285Y440215D01*
X451069Y438396D01*
X450642Y436250D01*
X451069Y434104D01*
X452285Y432285D01*
X453460Y431499D01*
Y430001D01*
X452285Y429215D01*
X451069Y427396D01*
X450642Y425250D01*
X451069Y423104D01*
X452285Y421285D01*
X454104Y420069D01*
X456250Y419642D01*
X458396Y420069D01*
X460215Y421285D01*
X461431Y423104D01*
X461858Y425250D01*
X461431Y427396D01*
X460215Y429215D01*
X459040Y430001D01*
Y431499D01*
X460215Y432285D01*
X461431Y434104D01*
X461858Y436250D01*
X461431Y438396D01*
X460215Y440215D01*
X458396Y441431D01*
X456250Y441858D01*
D02*
G37*
G36*
X227500Y437358D02*
X225354Y436931D01*
X223535Y435715D01*
X222319Y433896D01*
X221892Y431750D01*
X222319Y429604D01*
X223535Y427785D01*
X225354Y426569D01*
X227500Y426142D01*
X227908Y426223D01*
X228806Y425326D01*
X228642Y424500D01*
X229069Y422354D01*
X230285Y420535D01*
X232104Y419319D01*
X234250Y418892D01*
X236396Y419319D01*
X238215Y420535D01*
X239431Y422354D01*
X239858Y424500D01*
X239431Y426646D01*
X238215Y428465D01*
X236396Y429681D01*
X234250Y430108D01*
X233842Y430027D01*
X232944Y430924D01*
X233108Y431750D01*
X232681Y433896D01*
X231465Y435715D01*
X229646Y436931D01*
X227500Y437358D01*
D02*
G37*
G36*
X514500Y428608D02*
X512354Y428181D01*
X510535Y426965D01*
X509319Y425146D01*
X508892Y423000D01*
X509319Y420854D01*
X510535Y419035D01*
X512354Y417819D01*
X514500Y417392D01*
X516646Y417819D01*
X518465Y419035D01*
X519681Y420854D01*
X520108Y423000D01*
X519681Y425146D01*
X518465Y426965D01*
X516646Y428181D01*
X514500Y428608D01*
D02*
G37*
G36*
X494500D02*
X492354Y428181D01*
X490535Y426965D01*
X489319Y425146D01*
X488892Y423000D01*
X489319Y420854D01*
X490535Y419035D01*
X492354Y417819D01*
X494500Y417392D01*
X496646Y417819D01*
X498465Y419035D01*
X499681Y420854D01*
X500108Y423000D01*
X499681Y425146D01*
X498465Y426965D01*
X496646Y428181D01*
X494500Y428608D01*
D02*
G37*
G36*
X201250Y428358D02*
X199104Y427931D01*
X197285Y426715D01*
X196069Y424896D01*
X195642Y422750D01*
X196069Y420604D01*
X197285Y418785D01*
X199104Y417569D01*
X201250Y417142D01*
X203396Y417569D01*
X205215Y418785D01*
X206431Y420604D01*
X206858Y422750D01*
X206431Y424896D01*
X205215Y426715D01*
X203396Y427931D01*
X201250Y428358D01*
D02*
G37*
G36*
X377250Y418358D02*
X375104Y417931D01*
X373285Y416715D01*
X372069Y414896D01*
X371642Y412750D01*
X372069Y410604D01*
X373285Y408785D01*
X375104Y407569D01*
X377250Y407142D01*
X379396Y407569D01*
X381215Y408785D01*
X382431Y410604D01*
X382858Y412750D01*
X382431Y414896D01*
X381215Y416715D01*
X379396Y417931D01*
X377250Y418358D01*
D02*
G37*
G36*
X454250Y412358D02*
X452104Y411931D01*
X450285Y410715D01*
X449069Y408896D01*
X448642Y406750D01*
X449069Y404604D01*
X450285Y402785D01*
X452104Y401569D01*
X454250Y401142D01*
X456396Y401569D01*
X458215Y402785D01*
X459431Y404604D01*
X459858Y406750D01*
X459431Y408896D01*
X458215Y410715D01*
X456396Y411931D01*
X454250Y412358D01*
D02*
G37*
G36*
X19500Y411358D02*
X17354Y410931D01*
X15535Y409715D01*
X14319Y407896D01*
X13892Y405750D01*
X14319Y403604D01*
X15535Y401785D01*
X17354Y400569D01*
X19500Y400142D01*
X21646Y400569D01*
X23465Y401785D01*
X24681Y403604D01*
X25108Y405750D01*
X24681Y407896D01*
X23465Y409715D01*
X21646Y410931D01*
X19500Y411358D01*
D02*
G37*
G36*
X573500Y397098D02*
X571549Y396710D01*
X569895Y395605D01*
X568790Y393951D01*
X568402Y392000D01*
X568790Y390049D01*
X569895Y388395D01*
X571549Y387290D01*
X573500Y386902D01*
X575451Y387290D01*
X577105Y388395D01*
X578210Y390049D01*
X578598Y392000D01*
X578210Y393951D01*
X577105Y395605D01*
X575451Y396710D01*
X573500Y397098D01*
D02*
G37*
G36*
X607000Y396848D02*
X605049Y396460D01*
X603395Y395355D01*
X602290Y393701D01*
X601902Y391750D01*
X602290Y389799D01*
X603395Y388145D01*
X605049Y387040D01*
X607000Y386652D01*
X608951Y387040D01*
X610605Y388145D01*
X611710Y389799D01*
X612098Y391750D01*
X611710Y393701D01*
X610605Y395355D01*
X608951Y396460D01*
X607000Y396848D01*
D02*
G37*
G36*
X589500Y396598D02*
X587549Y396210D01*
X585895Y395105D01*
X584790Y393451D01*
X584402Y391500D01*
X584790Y389549D01*
X585895Y387895D01*
X587549Y386790D01*
X589500Y386402D01*
X591451Y386790D01*
X593105Y387895D01*
X594210Y389549D01*
X594598Y391500D01*
X594210Y393451D01*
X593105Y395105D01*
X591451Y396210D01*
X589500Y396598D01*
D02*
G37*
G36*
X269750Y394108D02*
X267604Y393681D01*
X265785Y392465D01*
X264569Y390646D01*
X264142Y388500D01*
X264569Y386354D01*
X265785Y384535D01*
X267604Y383319D01*
X269750Y382892D01*
X271896Y383319D01*
X273715Y384535D01*
X274931Y386354D01*
X275358Y388500D01*
X274931Y390646D01*
X273715Y392465D01*
X271896Y393681D01*
X269750Y394108D01*
D02*
G37*
G36*
X254750D02*
X252604Y393681D01*
X250785Y392465D01*
X249569Y390646D01*
X249142Y388500D01*
X249569Y386354D01*
X250785Y384535D01*
X252604Y383319D01*
X254750Y382892D01*
X256896Y383319D01*
X258715Y384535D01*
X259931Y386354D01*
X260358Y388500D01*
X259931Y390646D01*
X258715Y392465D01*
X256896Y393681D01*
X254750Y394108D01*
D02*
G37*
G36*
X239750D02*
X237604Y393681D01*
X235785Y392465D01*
X234569Y390646D01*
X234142Y388500D01*
X234569Y386354D01*
X235785Y384535D01*
X237604Y383319D01*
X239750Y382892D01*
X241896Y383319D01*
X243715Y384535D01*
X244931Y386354D01*
X245358Y388500D01*
X244931Y390646D01*
X243715Y392465D01*
X241896Y393681D01*
X239750Y394108D01*
D02*
G37*
G36*
X390000Y385858D02*
X387854Y385431D01*
X386035Y384215D01*
X384819Y382396D01*
X384686Y381728D01*
X384534Y381608D01*
X383295Y381246D01*
X381896Y382181D01*
X379750Y382608D01*
X377604Y382181D01*
X375785Y380965D01*
X374569Y379146D01*
X374142Y377000D01*
X374468Y375361D01*
X373646Y374345D01*
X373491Y374260D01*
X373000Y374358D01*
X370854Y373931D01*
X369035Y372715D01*
X367819Y370896D01*
X367392Y368750D01*
X367819Y366604D01*
X369035Y364785D01*
X370854Y363569D01*
X373000Y363142D01*
X375146Y363569D01*
X376965Y364785D01*
X378181Y366604D01*
X378608Y368750D01*
X378282Y370390D01*
X379104Y371405D01*
X379259Y371490D01*
X379750Y371392D01*
X381896Y371819D01*
X383715Y373035D01*
X384931Y374854D01*
X385064Y375522D01*
X385216Y375642D01*
X386455Y376004D01*
X387854Y375069D01*
X390000Y374642D01*
X392146Y375069D01*
X393965Y376285D01*
X395181Y378104D01*
X395608Y380250D01*
X395181Y382396D01*
X393965Y384215D01*
X392146Y385431D01*
X390000Y385858D01*
D02*
G37*
G36*
X186500Y392108D02*
X184354Y391681D01*
X182535Y390465D01*
X181319Y388646D01*
X180892Y386500D01*
X181319Y384354D01*
X182535Y382535D01*
X184354Y381319D01*
X186500Y380892D01*
X188646Y381319D01*
X190465Y382535D01*
X191681Y384354D01*
X192108Y386500D01*
X191681Y388646D01*
X190465Y390465D01*
X188646Y391681D01*
X186500Y392108D01*
D02*
G37*
G36*
X365000Y386608D02*
X362854Y386181D01*
X361035Y384965D01*
X359819Y383146D01*
X359392Y381000D01*
X359819Y378854D01*
X361035Y377035D01*
X362854Y375819D01*
X365000Y375392D01*
X367146Y375819D01*
X368965Y377035D01*
X370181Y378854D01*
X370608Y381000D01*
X370181Y383146D01*
X368965Y384965D01*
X367146Y386181D01*
X365000Y386608D01*
D02*
G37*
G36*
X27000Y384608D02*
X24854Y384181D01*
X23035Y382965D01*
X21819Y381146D01*
X21392Y379000D01*
X21819Y376854D01*
X23035Y375035D01*
X24854Y373819D01*
X27000Y373392D01*
X29146Y373819D01*
X30965Y375035D01*
X32181Y376854D01*
X32608Y379000D01*
X32181Y381146D01*
X30965Y382965D01*
X29146Y384181D01*
X27000Y384608D01*
D02*
G37*
G36*
X489500Y383358D02*
X487354Y382931D01*
X485535Y381715D01*
X484319Y379896D01*
X483892Y377750D01*
X484319Y375604D01*
X485535Y373785D01*
X487354Y372569D01*
X489500Y372142D01*
X491646Y372569D01*
X493465Y373785D01*
X494681Y375604D01*
X495108Y377750D01*
X494681Y379896D01*
X493465Y381715D01*
X491646Y382931D01*
X489500Y383358D01*
D02*
G37*
G36*
X445500Y381858D02*
X443354Y381431D01*
X441535Y380215D01*
X440319Y378396D01*
X439892Y376250D01*
X440319Y374104D01*
X441535Y372285D01*
X443354Y371069D01*
X445500Y370642D01*
X447646Y371069D01*
X449465Y372285D01*
X450681Y374104D01*
X451108Y376250D01*
X450681Y378396D01*
X449465Y380215D01*
X447646Y381431D01*
X445500Y381858D01*
D02*
G37*
G36*
X269750Y379108D02*
X267604Y378681D01*
X265785Y377465D01*
X264569Y375646D01*
X264142Y373500D01*
X264569Y371354D01*
X265785Y369535D01*
X267604Y368319D01*
X269750Y367892D01*
X271896Y368319D01*
X273715Y369535D01*
X274931Y371354D01*
X275358Y373500D01*
X274931Y375646D01*
X273715Y377465D01*
X271896Y378681D01*
X269750Y379108D01*
D02*
G37*
G36*
X254750D02*
X252604Y378681D01*
X250785Y377465D01*
X249569Y375646D01*
X249142Y373500D01*
X249569Y371354D01*
X250785Y369535D01*
X252604Y368319D01*
X254750Y367892D01*
X256896Y368319D01*
X258715Y369535D01*
X259931Y371354D01*
X260358Y373500D01*
X259931Y375646D01*
X258715Y377465D01*
X256896Y378681D01*
X254750Y379108D01*
D02*
G37*
G36*
X239750D02*
X237604Y378681D01*
X235785Y377465D01*
X234569Y375646D01*
X234142Y373500D01*
X234569Y371354D01*
X235785Y369535D01*
X237604Y368319D01*
X239750Y367892D01*
X241896Y368319D01*
X243715Y369535D01*
X244931Y371354D01*
X245358Y373500D01*
X244931Y375646D01*
X243715Y377465D01*
X241896Y378681D01*
X239750Y379108D01*
D02*
G37*
G36*
X317250Y372608D02*
X315104Y372181D01*
X313285Y370965D01*
X312069Y369146D01*
X311642Y367000D01*
X312069Y364854D01*
X313285Y363035D01*
X315104Y361819D01*
X317250Y361392D01*
X319396Y361819D01*
X321215Y363035D01*
X322431Y364854D01*
X322858Y367000D01*
X322431Y369146D01*
X321215Y370965D01*
X319396Y372181D01*
X317250Y372608D01*
D02*
G37*
G36*
X169750Y370108D02*
X167604Y369681D01*
X165785Y368465D01*
X164569Y366646D01*
X164142Y364500D01*
X164569Y362354D01*
X165785Y360535D01*
X167604Y359319D01*
X169750Y358892D01*
X171896Y359319D01*
X173715Y360535D01*
X174931Y362354D01*
X175358Y364500D01*
X174931Y366646D01*
X173715Y368465D01*
X171896Y369681D01*
X169750Y370108D01*
D02*
G37*
G36*
X348750Y365739D02*
X346604Y365312D01*
X344785Y364096D01*
X343569Y362277D01*
X343142Y360131D01*
X343569Y357985D01*
X344785Y356166D01*
X346604Y354950D01*
X348750Y354524D01*
X350896Y354950D01*
X352715Y356166D01*
X353931Y357985D01*
X354358Y360131D01*
X353931Y362277D01*
X352715Y364096D01*
X350896Y365312D01*
X348750Y365739D01*
D02*
G37*
G36*
X269750Y364108D02*
X267604Y363681D01*
X265785Y362465D01*
X264569Y360646D01*
X264142Y358500D01*
X264569Y356354D01*
X265785Y354535D01*
X267604Y353319D01*
X269750Y352892D01*
X271896Y353319D01*
X273715Y354535D01*
X274931Y356354D01*
X275358Y358500D01*
X274931Y360646D01*
X273715Y362465D01*
X271896Y363681D01*
X269750Y364108D01*
D02*
G37*
G36*
X254750D02*
X252604Y363681D01*
X250785Y362465D01*
X249569Y360646D01*
X249142Y358500D01*
X249569Y356354D01*
X250785Y354535D01*
X252604Y353319D01*
X254750Y352892D01*
X256896Y353319D01*
X258715Y354535D01*
X259931Y356354D01*
X260358Y358500D01*
X259931Y360646D01*
X258715Y362465D01*
X256896Y363681D01*
X254750Y364108D01*
D02*
G37*
G36*
X239750D02*
X237604Y363681D01*
X235785Y362465D01*
X234569Y360646D01*
X234142Y358500D01*
X234569Y356354D01*
X235785Y354535D01*
X237604Y353319D01*
X239750Y352892D01*
X241896Y353319D01*
X243715Y354535D01*
X244931Y356354D01*
X245358Y358500D01*
X244931Y360646D01*
X243715Y362465D01*
X241896Y363681D01*
X239750Y364108D01*
D02*
G37*
G36*
X578000Y374112D02*
X574606Y373665D01*
X571444Y372355D01*
X568728Y370272D01*
X566644Y367556D01*
X565335Y364394D01*
X564888Y361000D01*
X565335Y357606D01*
X566644Y354444D01*
X568728Y351728D01*
X571444Y349645D01*
X574606Y348335D01*
X578000Y347888D01*
X581394Y348335D01*
X584556Y349645D01*
X587272Y351728D01*
X589355Y354444D01*
X590665Y357606D01*
X591112Y361000D01*
X590665Y364394D01*
X589355Y367556D01*
X587272Y370272D01*
X584556Y372355D01*
X581394Y373665D01*
X578000Y374112D01*
D02*
G37*
G36*
X295000Y372608D02*
X292854Y372181D01*
X291035Y370965D01*
X289819Y369146D01*
X289392Y367000D01*
X289819Y364854D01*
X291035Y363035D01*
X292854Y361819D01*
X295000Y361392D01*
X295491Y361490D01*
X295646Y361405D01*
X296468Y360389D01*
X296142Y358750D01*
X296344Y357735D01*
X295500Y356608D01*
X293354Y356181D01*
X291535Y354965D01*
X290319Y353146D01*
X289892Y351000D01*
X290319Y348854D01*
X291535Y347035D01*
X293354Y345819D01*
X295500Y345392D01*
X297646Y345819D01*
X299465Y347035D01*
X300681Y348854D01*
X301108Y351000D01*
X300906Y352015D01*
X301750Y353142D01*
X303896Y353569D01*
X305715Y354785D01*
X306931Y356604D01*
X307358Y358750D01*
X306931Y360896D01*
X305715Y362715D01*
X303896Y363931D01*
X301750Y364358D01*
X301259Y364260D01*
X301105Y364345D01*
X300282Y365361D01*
X300608Y367000D01*
X300181Y369146D01*
X298965Y370965D01*
X297146Y372181D01*
X295000Y372608D01*
D02*
G37*
G36*
X534000Y353108D02*
X531854Y352681D01*
X530035Y351465D01*
X528819Y349646D01*
X528392Y347500D01*
X528819Y345354D01*
X530035Y343535D01*
X531854Y342319D01*
X534000Y341892D01*
X536146Y342319D01*
X537965Y343535D01*
X539181Y345354D01*
X539608Y347500D01*
X539181Y349646D01*
X537965Y351465D01*
X536146Y352681D01*
X534000Y353108D01*
D02*
G37*
G36*
X367768Y344374D02*
X365622Y343947D01*
X363803Y342732D01*
X362587Y340913D01*
X362160Y338767D01*
X362587Y336620D01*
X363803Y334801D01*
X365622Y333586D01*
X367768Y333159D01*
X369914Y333586D01*
X371733Y334801D01*
X372949Y336620D01*
X373376Y338767D01*
X372949Y340913D01*
X371733Y342732D01*
X369914Y343947D01*
X367768Y344374D01*
D02*
G37*
G36*
X313750Y343358D02*
X311604Y342931D01*
X309785Y341715D01*
X308569Y339896D01*
X308142Y337750D01*
X308569Y335604D01*
X309785Y333785D01*
X311604Y332569D01*
X313750Y332142D01*
X315896Y332569D01*
X317715Y333785D01*
X318931Y335604D01*
X319358Y337750D01*
X318931Y339896D01*
X317715Y341715D01*
X315896Y342931D01*
X313750Y343358D01*
D02*
G37*
G36*
X161750Y341108D02*
X159604Y340681D01*
X157785Y339465D01*
X156569Y337646D01*
X156142Y335500D01*
X156569Y333354D01*
X157785Y331535D01*
X159604Y330319D01*
X161750Y329892D01*
X163896Y330319D01*
X165715Y331535D01*
X166931Y333354D01*
X167358Y335500D01*
X166931Y337646D01*
X165715Y339465D01*
X163896Y340681D01*
X161750Y341108D01*
D02*
G37*
G36*
X356017Y337874D02*
X353871Y337447D01*
X352052Y336231D01*
X350836Y334412D01*
X350410Y332266D01*
X350803Y330289D01*
X350538Y329860D01*
X349872Y329278D01*
X348000Y329651D01*
X345854Y329224D01*
X344035Y328008D01*
X342819Y326189D01*
X342392Y324043D01*
X342819Y321897D01*
X344035Y320078D01*
X345854Y318862D01*
X348000Y318435D01*
X350146Y318862D01*
X351965Y320078D01*
X353181Y321897D01*
X353608Y324043D01*
X353214Y326020D01*
X353479Y326449D01*
X354146Y327031D01*
X356017Y326659D01*
X358163Y327085D01*
X359983Y328301D01*
X361198Y330120D01*
X361625Y332266D01*
X361198Y334412D01*
X359983Y336231D01*
X358163Y337447D01*
X356017Y337874D01*
D02*
G37*
G36*
X435250Y339608D02*
X433104Y339181D01*
X431285Y337965D01*
X430069Y336146D01*
X429642Y334000D01*
X430069Y331854D01*
X431285Y330035D01*
X433104Y328819D01*
X435250Y328392D01*
X437396Y328819D01*
X439215Y330035D01*
X440431Y331854D01*
X440858Y334000D01*
X440431Y336146D01*
X439215Y337965D01*
X437396Y339181D01*
X435250Y339608D01*
D02*
G37*
G36*
X129250D02*
X127104Y339181D01*
X125285Y337965D01*
X124069Y336146D01*
X123642Y334000D01*
X124069Y331854D01*
X125285Y330035D01*
X127104Y328819D01*
X129250Y328392D01*
X131396Y328819D01*
X133215Y330035D01*
X134431Y331854D01*
X134858Y334000D01*
X134431Y336146D01*
X133215Y337965D01*
X131396Y339181D01*
X129250Y339608D01*
D02*
G37*
G36*
X147000Y333608D02*
X144854Y333181D01*
X143035Y331965D01*
X141819Y330146D01*
X141392Y328000D01*
X141819Y325854D01*
X143035Y324035D01*
X144854Y322819D01*
X147000Y322392D01*
X149146Y322819D01*
X150965Y324035D01*
X152181Y325854D01*
X152608Y328000D01*
X152181Y330146D01*
X150965Y331965D01*
X149146Y333181D01*
X147000Y333608D01*
D02*
G37*
G36*
X378000Y332358D02*
X375854Y331931D01*
X374035Y330715D01*
X372819Y328896D01*
X372392Y326750D01*
X372819Y324604D01*
X374035Y322785D01*
X375854Y321569D01*
X378000Y321142D01*
X380146Y321569D01*
X381965Y322785D01*
X383181Y324604D01*
X383608Y326750D01*
X383181Y328896D01*
X381965Y330715D01*
X380146Y331931D01*
X378000Y332358D01*
D02*
G37*
G36*
X391500Y332108D02*
X389354Y331681D01*
X387535Y330465D01*
X386319Y328646D01*
X385892Y326500D01*
X386319Y324354D01*
X387535Y322535D01*
X389354Y321319D01*
X391500Y320892D01*
X393646Y321319D01*
X395465Y322535D01*
X396681Y324354D01*
X397108Y326500D01*
X396681Y328646D01*
X395465Y330465D01*
X393646Y331681D01*
X391500Y332108D01*
D02*
G37*
G36*
X225500Y326858D02*
X223354Y326431D01*
X221535Y325215D01*
X220319Y323396D01*
X219892Y321250D01*
X220319Y319104D01*
X221535Y317285D01*
X223354Y316069D01*
X225500Y315642D01*
X227646Y316069D01*
X229465Y317285D01*
X230681Y319104D01*
X231108Y321250D01*
X230681Y323396D01*
X229465Y325215D01*
X227646Y326431D01*
X225500Y326858D01*
D02*
G37*
G36*
X253250Y337358D02*
X251104Y336931D01*
X249285Y335715D01*
X248069Y333896D01*
X247642Y331750D01*
X248069Y329604D01*
X249285Y327785D01*
X250127Y327222D01*
Y325695D01*
X249035Y324965D01*
X247819Y323146D01*
X247392Y321000D01*
X247819Y318854D01*
X249035Y317035D01*
X250854Y315819D01*
X253000Y315392D01*
X255146Y315819D01*
X256965Y317035D01*
X258181Y318854D01*
X258608Y321000D01*
X258181Y323146D01*
X256965Y324965D01*
X256124Y325528D01*
Y327055D01*
X257215Y327785D01*
X258431Y329604D01*
X258858Y331750D01*
X258431Y333896D01*
X257215Y335715D01*
X255396Y336931D01*
X253250Y337358D01*
D02*
G37*
G36*
X578000Y339112D02*
X574606Y338665D01*
X571444Y337355D01*
X568728Y335272D01*
X566644Y332556D01*
X565335Y329394D01*
X564888Y326000D01*
X565335Y322606D01*
X566644Y319444D01*
X568728Y316728D01*
X571444Y314645D01*
X574606Y313335D01*
X578000Y312888D01*
X581394Y313335D01*
X584556Y314645D01*
X587272Y316728D01*
X589355Y319444D01*
X590665Y322606D01*
X591112Y326000D01*
X590665Y329394D01*
X589355Y332556D01*
X587272Y335272D01*
X584556Y337355D01*
X581394Y338665D01*
X578000Y339112D01*
D02*
G37*
G36*
X24500Y318608D02*
X22354Y318181D01*
X20535Y316965D01*
X19319Y315146D01*
X18892Y313000D01*
X19319Y310854D01*
X20535Y309035D01*
X22354Y307819D01*
X24500Y307392D01*
X26646Y307819D01*
X28465Y309035D01*
X29681Y310854D01*
X30108Y313000D01*
X29681Y315146D01*
X28465Y316965D01*
X26646Y318181D01*
X24500Y318608D01*
D02*
G37*
G36*
X428750Y315608D02*
X426604Y315181D01*
X424785Y313965D01*
X423569Y312146D01*
X423142Y310000D01*
X423569Y307854D01*
X424785Y306035D01*
X426604Y304819D01*
X428750Y304392D01*
X430896Y304819D01*
X432715Y306035D01*
X433931Y307854D01*
X434358Y310000D01*
X433931Y312146D01*
X432715Y313965D01*
X430896Y315181D01*
X428750Y315608D01*
D02*
G37*
G36*
X207750Y309858D02*
X205604Y309431D01*
X203785Y308215D01*
X202569Y306396D01*
X202142Y304250D01*
X202569Y302104D01*
X203785Y300285D01*
X205604Y299069D01*
X207750Y298642D01*
X209896Y299069D01*
X211715Y300285D01*
X212931Y302104D01*
X213358Y304250D01*
X212931Y306396D01*
X211715Y308215D01*
X209896Y309431D01*
X207750Y309858D01*
D02*
G37*
G36*
X419750Y301358D02*
X417604Y300931D01*
X415785Y299715D01*
X414569Y297896D01*
X414142Y295750D01*
X414569Y293604D01*
X415785Y291785D01*
X417604Y290569D01*
X419750Y290142D01*
X421896Y290569D01*
X423715Y291785D01*
X424931Y293604D01*
X425358Y295750D01*
X424931Y297896D01*
X423715Y299715D01*
X421896Y300931D01*
X419750Y301358D01*
D02*
G37*
G36*
X293750Y297358D02*
X291604Y296931D01*
X289785Y295715D01*
X288569Y293896D01*
X288142Y291750D01*
X288569Y289604D01*
X289785Y287785D01*
X291604Y286569D01*
X293750Y286142D01*
X295896Y286569D01*
X297715Y287785D01*
X298931Y289604D01*
X299358Y291750D01*
X298931Y293896D01*
X297715Y295715D01*
X295896Y296931D01*
X293750Y297358D01*
D02*
G37*
G36*
X232500D02*
X230354Y296931D01*
X228535Y295715D01*
X227319Y293896D01*
X226892Y291750D01*
X227319Y289604D01*
X228535Y287785D01*
X230354Y286569D01*
X232500Y286142D01*
X234646Y286569D01*
X236465Y287785D01*
X237681Y289604D01*
X238108Y291750D01*
X237681Y293896D01*
X236465Y295715D01*
X234646Y296931D01*
X232500Y297358D01*
D02*
G37*
G36*
X520500Y295108D02*
X518354Y294681D01*
X516535Y293465D01*
X515319Y291646D01*
X514892Y289500D01*
X515319Y287354D01*
X516535Y285535D01*
X518354Y284319D01*
X520500Y283892D01*
X522646Y284319D01*
X524465Y285535D01*
X525681Y287354D01*
X526108Y289500D01*
X525681Y291646D01*
X524465Y293465D01*
X522646Y294681D01*
X520500Y295108D01*
D02*
G37*
G36*
X578000Y304112D02*
X574606Y303665D01*
X571444Y302355D01*
X568728Y300272D01*
X566644Y297556D01*
X565335Y294394D01*
X564888Y291000D01*
X565335Y287606D01*
X566644Y284444D01*
X568728Y281728D01*
X571444Y279645D01*
X574606Y278335D01*
X578000Y277888D01*
X581394Y278335D01*
X584556Y279645D01*
X587272Y281728D01*
X589355Y284444D01*
X590665Y287606D01*
X591112Y291000D01*
X590665Y294394D01*
X589355Y297556D01*
X587272Y300272D01*
X584556Y302355D01*
X581394Y303665D01*
X578000Y304112D01*
D02*
G37*
G36*
X126350Y295250D02*
X107350D01*
Y276250D01*
X126350D01*
Y295250D01*
D02*
G37*
G36*
X50150D02*
X31150D01*
Y276250D01*
X50150D01*
Y295250D01*
D02*
G37*
G36*
X232500Y279858D02*
X230354Y279431D01*
X228535Y278215D01*
X227319Y276396D01*
X226892Y274250D01*
X227319Y272104D01*
X228535Y270285D01*
X230354Y269069D01*
X232500Y268642D01*
X234646Y269069D01*
X236465Y270285D01*
X237681Y272104D01*
X238108Y274250D01*
X237681Y276396D01*
X236465Y278215D01*
X234646Y279431D01*
X232500Y279858D01*
D02*
G37*
G36*
X384500Y275358D02*
X382354Y274931D01*
X380535Y273715D01*
X379319Y271896D01*
X378892Y269750D01*
X379319Y267604D01*
X380535Y265785D01*
X382354Y264569D01*
X384500Y264142D01*
X386646Y264569D01*
X388465Y265785D01*
X389681Y267604D01*
X390108Y269750D01*
X389681Y271896D01*
X388465Y273715D01*
X386646Y274931D01*
X384500Y275358D01*
D02*
G37*
G36*
X401750Y274108D02*
X399604Y273681D01*
X397785Y272465D01*
X396569Y270646D01*
X396142Y268500D01*
X396569Y266354D01*
X397785Y264535D01*
X399604Y263319D01*
X401750Y262892D01*
X403896Y263319D01*
X405715Y264535D01*
X406931Y266354D01*
X407358Y268500D01*
X406931Y270646D01*
X405715Y272465D01*
X403896Y273681D01*
X401750Y274108D01*
D02*
G37*
G36*
X49750Y186000D02*
X30750D01*
Y167000D01*
X49750D01*
Y186000D01*
D02*
G37*
G36*
X580250Y186082D02*
X577770Y185756D01*
X575459Y184798D01*
X573475Y183276D01*
X571952Y181291D01*
X570995Y178980D01*
X570668Y176500D01*
X570995Y174020D01*
X571952Y171709D01*
X573475Y169725D01*
X575459Y168202D01*
X577770Y167244D01*
X580250Y166918D01*
X582730Y167244D01*
X585041Y168202D01*
X587025Y169725D01*
X588548Y171709D01*
X589506Y174020D01*
X589832Y176500D01*
X589506Y178980D01*
X588548Y181291D01*
X587025Y183276D01*
X585041Y184798D01*
X582730Y185756D01*
X580250Y186082D01*
D02*
G37*
G36*
X600000Y60000D02*
X560000D01*
Y20000D01*
X598750D01*
Y58750D01*
X600000Y60000D01*
D02*
G37*
G36*
X60000D02*
X20000D01*
Y20000D01*
X60000D01*
Y60000D01*
D02*
G37*
%LPD*%
D83*
X505500Y500000D02*
D03*
X381500Y584000D02*
D03*
X128250Y380250D02*
D03*
X114250Y379750D02*
D03*
X99750D02*
D03*
X313750Y306500D02*
D03*
X274263Y311015D02*
D03*
X416000Y410750D02*
D03*
X418250Y274750D02*
D03*
X265000Y429000D02*
D03*
X371000Y458000D02*
D03*
X169500Y375500D02*
D03*
X313500Y495500D02*
D03*
X534000Y273500D02*
D03*
X521250Y327500D02*
D03*
X445500Y387250D02*
D03*
X184500Y566250D02*
D03*
X288500Y579500D02*
D03*
M02*
