G04*
G04 #@! TF.GenerationSoftware,Altium Limited,Altium Designer,19.1.8 (144)*
G04*
G04 Layer_Physical_Order=1*
G04 Layer_Color=255*
%FSLAX44Y44*%
%MOMM*%
G71*
G01*
G75*
%ADD10C,0.2500*%
%ADD12C,0.2000*%
%ADD17R,1.4620X0.2394*%
%ADD23R,1.9700X0.5680*%
%ADD25R,1.3970X1.1938*%
%ADD30R,0.2394X1.4620*%
%ADD36R,1.4620X0.5680*%
%ADD37R,1.2954X2.3876*%
%ADD42R,0.5680X1.4549*%
%ADD51R,4.2000X1.1500*%
%ADD52R,2.4000X3.3000*%
%ADD53R,2.4000X1.0000*%
%ADD54R,1.4000X0.4000*%
%ADD55R,0.8000X0.3000*%
%ADD56R,0.6000X0.6000*%
%ADD57R,2.1000X1.4000*%
%ADD58R,1.9000X1.7500*%
%ADD59R,1.9000X1.8000*%
%ADD60R,1.6000X2.1000*%
%ADD61R,1.0000X0.5000*%
%ADD62R,3.1500X3.1500*%
%ADD63R,0.3000X0.8000*%
%ADD64R,0.6000X0.6000*%
%ADD65R,0.8500X0.8500*%
%ADD66R,0.8500X0.8500*%
%ADD67R,4.4000X4.4000*%
%ADD68R,0.3000X0.7500*%
%ADD69R,0.7500X0.3000*%
%ADD70P,0.8485X4X270.0*%
%ADD71C,0.5000*%
%ADD72C,0.3500*%
%ADD73C,0.4000*%
%ADD74C,0.3000*%
%ADD75C,0.1500*%
%ADD76C,0.8000*%
%ADD77C,1.1000*%
%ADD78C,2.2000*%
%ADD79C,2.0000*%
%ADD80R,2.0000X2.0000*%
%ADD81C,1.5000*%
%ADD82R,1.5000X1.5000*%
%ADD83C,0.7000*%
%ADD84C,0.6000*%
G36*
X420000Y574000D02*
X464500D01*
Y558500D01*
X350000D01*
Y574000D01*
X397250D01*
Y590000D01*
X420000D01*
Y574000D01*
D02*
G37*
G36*
X337000Y558250D02*
X222000D01*
X222000Y573750D01*
X337000Y573750D01*
Y558250D01*
D02*
G37*
G36*
X463250Y513250D02*
X462750Y513750D01*
X350000D01*
Y529000D01*
X463250D01*
Y513250D01*
D02*
G37*
G36*
X337000D02*
X222000D01*
Y528750D01*
X337000D01*
Y513250D01*
D02*
G37*
G36*
X27181Y471500D02*
X2549D01*
Y481500D01*
X27181D01*
Y471500D01*
D02*
G37*
G36*
X175500Y631451D02*
Y471500D01*
X34319D01*
Y481500D01*
X151750D01*
Y631451D01*
Y651451D01*
X175500D01*
Y631451D01*
D02*
G37*
G36*
X268500Y499750D02*
Y452500D01*
X240750Y452500D01*
Y499750D01*
X268500Y499750D01*
D02*
G37*
G36*
X612500Y386250D02*
X568250D01*
X552500Y402000D01*
Y428750D01*
X553500Y429750D01*
X586000D01*
X590000Y433750D01*
X590000Y448750D01*
X585000Y453750D01*
X561250Y453750D01*
X547500Y467500D01*
Y502500D01*
X612500D01*
Y386250D01*
D02*
G37*
G36*
X134250Y350250D02*
X125500D01*
X121750Y346500D01*
Y339000D01*
X118000Y335250D01*
X91750D01*
Y387250D01*
X134250D01*
Y350250D01*
D02*
G37*
G36*
X104250Y296500D02*
X129250Y296500D01*
Y272750D01*
X126750Y270250D01*
X85750Y270250D01*
X47750Y308250D01*
X27000Y329000D01*
X16750D01*
Y339000D01*
X61750D01*
X104250Y296500D01*
D02*
G37*
G36*
X50000Y202500D02*
X52000Y200500D01*
X55000D01*
Y165250D01*
X55250Y165000D01*
X23750D01*
Y187750D01*
X31250Y195250D01*
Y294000D01*
X50000D01*
Y202500D01*
D02*
G37*
D10*
X574500Y449500D02*
X574500Y449500D01*
X549000Y449500D02*
X574500D01*
X547000Y451500D02*
X549000Y449500D01*
X545777Y441521D02*
X547228D01*
X547500Y441250D01*
X549250Y443000D01*
X575250D01*
X545500Y451500D02*
X547000D01*
X554796Y436500D02*
X575250D01*
X456250Y436250D02*
X457197D01*
X460447Y433000D02*
X481500D01*
X457197Y436250D02*
X460447Y433000D01*
X459947Y428000D02*
X481500D01*
X457197Y425250D02*
X459947Y428000D01*
X456250Y425250D02*
X457197D01*
X183250Y319500D02*
X186750Y323000D01*
X175750Y319500D02*
X183250D01*
X175500Y319750D02*
X175750Y319500D01*
X270500Y411750D02*
X274250D01*
X267750Y409000D02*
X270500Y411750D01*
X267750Y403250D02*
Y409000D01*
Y403250D02*
X267750Y403250D01*
X264500Y412750D02*
Y418250D01*
X261250Y409500D02*
X264500Y412750D01*
Y418250D02*
X265000Y418750D01*
X261250Y403250D02*
X261250Y403250D01*
X261250Y403250D02*
Y409500D01*
X538625Y420329D02*
X554796Y436500D01*
X538625Y405875D02*
Y420329D01*
X522346Y463250D02*
X539000Y446596D01*
Y430250D02*
Y446596D01*
X514500Y463000D02*
X514750Y463250D01*
X522346D01*
X471000Y423000D02*
X481500D01*
X465750Y417750D02*
X471000Y423000D01*
X489614Y478500D02*
X504000Y464114D01*
Y463053D02*
Y464114D01*
Y463053D02*
X504500Y462553D01*
X460500Y486500D02*
X464846D01*
X470173Y481173D01*
Y480577D02*
Y481173D01*
Y480577D02*
X472250Y478500D01*
X207250Y335250D02*
X211000Y339000D01*
Y349846D01*
X197355Y344969D02*
X219136Y366750D01*
X211000Y349846D02*
X219904Y358750D01*
X221000D01*
X222750Y360500D01*
X225000D01*
X219136Y366750D02*
X224750D01*
X225000Y367000D01*
X180750Y375500D02*
X189000D01*
X193500Y380000D01*
X189169Y344969D02*
X197355D01*
X186750Y323000D02*
Y342550D01*
X189169Y344969D01*
X235250Y403250D02*
Y411250D01*
X473500Y438000D02*
X481500D01*
X465250Y446250D02*
X473500Y438000D01*
X292500Y354000D02*
X295500Y351000D01*
X284500Y354000D02*
X292500D01*
X284500Y367000D02*
X295000D01*
X481500Y438000D02*
X481500Y438000D01*
X175500Y319750D02*
X176516D01*
X474250Y405500D02*
X481750Y398000D01*
X474250Y405500D02*
Y415500D01*
X476750Y418000D01*
X481500D01*
X504500Y456000D02*
Y462553D01*
X499500Y456000D02*
Y462250D01*
X494750Y467000D02*
X499500Y462250D01*
X477250Y478500D02*
X489614D01*
X463750Y467000D02*
X494750D01*
X504500Y456000D02*
X504500Y456000D01*
X440250Y453750D02*
X441500D01*
X454750Y467000D01*
X463750D01*
X514500Y456000D02*
Y463000D01*
X509500Y456000D02*
Y469750D01*
X472250Y478500D02*
X477250D01*
X497000Y398000D02*
X498000Y399000D01*
X489500Y398000D02*
X497000D01*
X498000Y399000D02*
X531750D01*
X538625Y405875D01*
X243500Y413000D02*
Y417250D01*
X243500Y417250D01*
X243500Y413000D02*
X248250Y408250D01*
Y403250D02*
Y408250D01*
X481250Y422750D02*
X481500Y423000D01*
X481750Y398000D02*
X489500D01*
Y410000D01*
X274250Y321000D02*
Y331750D01*
Y343750D01*
X276000Y413500D02*
Y418750D01*
X274250Y411750D02*
X276000Y413500D01*
X254500Y417250D02*
X254750Y417000D01*
Y403250D02*
Y417000D01*
X202000Y372000D02*
X212000D01*
X213500Y373500D01*
X225000D01*
X193500Y380000D02*
X225000D01*
X207500Y386500D02*
X225000D01*
X214500Y395500D02*
X217000Y393000D01*
X225000D01*
X189389Y408861D02*
X189501Y408749D01*
D12*
X369292Y482850D02*
X402665D01*
X368192Y481750D02*
X369292Y482850D01*
X362808Y481750D02*
X368192D01*
X361708Y482850D02*
X362808Y481750D01*
X332191Y482850D02*
X361708D01*
X402665D02*
X430750Y454765D01*
X460125Y367625D02*
Y387875D01*
X438750Y409250D02*
X460125Y387875D01*
X438750Y409250D02*
Y440000D01*
X351500Y309836D02*
Y319190D01*
X348000Y322690D02*
X351500Y319190D01*
X348000Y322690D02*
Y324043D01*
X351500Y309836D02*
X351500Y309836D01*
X332603Y338767D02*
X367768D01*
X331853Y339517D02*
X332603Y338767D01*
X225000Y335750D02*
Y354000D01*
X388975Y415283D02*
Y433500D01*
X379942Y406250D02*
X388975Y415283D01*
X379843Y406250D02*
X379942D01*
X376500Y402907D02*
X379843Y406250D01*
X376500Y394164D02*
Y402907D01*
X385599Y406250D02*
X394500D01*
X381599Y402250D02*
X385599Y406250D01*
X381500Y402250D02*
X381599D01*
X381500Y394164D02*
Y402250D01*
X440300Y327550D02*
X455862D01*
X430500Y317750D02*
X440300Y327550D01*
X409500Y317750D02*
X430500D01*
X400668Y466750D02*
X401750D01*
X397268Y470150D02*
X400668Y466750D01*
X332191Y470150D02*
X397268D01*
X354664Y332266D02*
X356017D01*
X352431Y334500D02*
X354664Y332266D01*
X331836Y334500D02*
X352431D01*
X390000Y362750D02*
Y380250D01*
Y362750D02*
X403250Y349500D01*
X290750Y360500D02*
X292500Y358750D01*
X301750D01*
X284500Y360500D02*
X290750D01*
X284500Y360500D02*
X284500Y360500D01*
X430750Y448000D02*
X438750Y440000D01*
X430750Y448000D02*
Y454765D01*
X219000Y510000D02*
X287750D01*
X216250Y512750D02*
X219000Y510000D01*
X216250Y512750D02*
Y529750D01*
X225000Y335750D02*
X257250Y303500D01*
X403250Y349500D02*
X416164D01*
X421500Y388250D02*
X426750Y393500D01*
X412164Y388250D02*
X421500D01*
X400250Y376336D02*
X412164Y388250D01*
X400250Y360500D02*
Y376336D01*
X410000Y404750D02*
X416000Y410750D01*
X400250Y360500D02*
X406250Y354500D01*
X416164D01*
X426750Y393500D02*
Y453108D01*
X403608Y476250D02*
X426750Y453108D01*
X323250Y476250D02*
X403608D01*
X429000Y376250D02*
X434500D01*
X427250Y374500D02*
X429000Y376250D01*
X416164Y374500D02*
X427250D01*
X340222Y421750D02*
X345993D01*
X310000Y451972D02*
X340222Y421750D01*
X310000Y451972D02*
Y487750D01*
X345993Y421750D02*
X351246Y416496D01*
Y412158D02*
Y416496D01*
Y412158D02*
X356500Y406904D01*
X361500Y394164D02*
Y410250D01*
X357250Y414500D02*
X361500Y410250D01*
X357250Y414500D02*
Y417000D01*
X308500Y374500D02*
X331836D01*
X303000Y380000D02*
X308500Y374500D01*
X284500Y380000D02*
X303000D01*
X314750Y359500D02*
X331836D01*
X300750Y373500D02*
X314750Y359500D01*
X284500Y373500D02*
X300750D01*
X340500Y379500D02*
X374500Y345500D01*
X381750D01*
X331836Y339500D02*
X331853Y339517D01*
X363000Y368750D02*
X373000D01*
X346500Y385250D02*
X363000Y368750D01*
X356407Y381000D02*
X365000D01*
X351500Y385907D02*
X356407Y381000D01*
X351500Y385907D02*
Y394164D01*
X371500Y385250D02*
X379750Y377000D01*
X371500Y385250D02*
Y394164D01*
X234000Y547500D02*
Y566000D01*
X216250Y529750D02*
X234000Y547500D01*
X287750Y510000D02*
X310000Y487750D01*
X370000Y422250D02*
X370500Y422750D01*
X370000Y418750D02*
Y422250D01*
X370500Y422750D02*
Y428750D01*
X368250Y417000D02*
X370000Y418750D01*
X368250Y408000D02*
Y417000D01*
X372309Y412941D02*
X376809D01*
X368250Y417000D02*
X372309Y412941D01*
X394500Y406250D02*
X408000Y419750D01*
Y433475D01*
X381500Y394164D02*
X381500Y394164D01*
X317500Y470500D02*
X323250Y476250D01*
X317500Y459750D02*
X319800Y457450D01*
X332191D01*
X317500Y459750D02*
Y470500D01*
X346500Y385250D02*
Y394164D01*
X348750Y360131D02*
Y364250D01*
X343500Y369500D02*
X348750Y364250D01*
X331836Y369500D02*
X343500D01*
X376500Y298750D02*
Y309836D01*
X375000Y297250D02*
X376500Y298750D01*
X375000Y291750D02*
Y297250D01*
X371500Y300250D02*
Y309836D01*
X368250Y297000D02*
X371500Y300250D01*
X401500Y301000D02*
X405000Y297500D01*
X401500Y301000D02*
Y309836D01*
X396500Y300750D02*
Y309836D01*
X393750Y298000D02*
X396500Y300750D01*
X393750Y292000D02*
Y298000D01*
X405000Y292250D02*
Y297500D01*
X363493Y326750D02*
X378000D01*
X391500Y309836D02*
Y326500D01*
X381750Y345500D02*
X409500Y317750D01*
X366500Y406250D02*
X368250Y408000D01*
X366500Y394164D02*
Y406250D01*
X356500Y394164D02*
Y406904D01*
X234000Y563750D02*
Y566000D01*
X404250Y404750D02*
X410000D01*
X331836Y379500D02*
X340500D01*
X290750Y309750D02*
Y335500D01*
X284500Y303500D02*
X290750Y309750D01*
X257250Y303500D02*
X284500D01*
X356646Y319903D02*
X363493Y326750D01*
X356646Y309982D02*
Y319903D01*
X401500Y402000D02*
X404250Y404750D01*
X401500Y394164D02*
Y402000D01*
X317250Y367000D02*
X319750Y364500D01*
X290750Y335500D02*
X309750Y354500D01*
X331836D01*
X416164Y364500D02*
X457000D01*
X460125Y367625D01*
X425750Y379500D02*
X428000Y381750D01*
X416164Y379500D02*
X425750D01*
Y324500D02*
X435250Y334000D01*
X416164Y324500D02*
X425750D01*
X316500Y379500D02*
X331836D01*
X346500Y394164D02*
X346500Y394164D01*
Y405000D01*
X371500Y394164D02*
X371500Y394164D01*
X356500Y309836D02*
X356646Y309982D01*
X344500Y407000D02*
X346500Y405000D01*
X319750Y364500D02*
X331836D01*
X344500Y407000D02*
Y413000D01*
X344500Y413000D02*
X344500Y413000D01*
X314250Y381750D02*
Y388750D01*
Y381750D02*
X316500Y379500D01*
X313750Y316750D02*
X318750D01*
X320500Y318500D01*
Y321000D01*
X324000Y324500D01*
X331836D01*
X313750Y327750D02*
X320500D01*
X322250Y329500D01*
X331836D01*
X331836Y329500D01*
X428000Y381750D02*
Y383750D01*
X431250Y387000D01*
X434250D01*
X434500Y387250D01*
X361750Y291750D02*
X367000D01*
X368250Y293000D01*
Y297000D01*
X404750Y292000D02*
X405000Y292250D01*
D17*
X416164Y349500D02*
D03*
Y354500D02*
D03*
Y379500D02*
D03*
Y374500D02*
D03*
Y369500D02*
D03*
Y364500D02*
D03*
Y359500D02*
D03*
Y344500D02*
D03*
Y339500D02*
D03*
Y334500D02*
D03*
Y329500D02*
D03*
Y324500D02*
D03*
X331836D02*
D03*
Y329500D02*
D03*
Y334500D02*
D03*
Y339500D02*
D03*
Y344500D02*
D03*
Y349500D02*
D03*
Y354500D02*
D03*
Y359500D02*
D03*
Y364500D02*
D03*
Y369500D02*
D03*
Y374500D02*
D03*
Y379500D02*
D03*
D23*
X505138Y302150D02*
D03*
Y314850D02*
D03*
X455862Y327550D02*
D03*
Y314850D02*
D03*
Y302150D02*
D03*
Y289450D02*
D03*
X505138D02*
D03*
Y327550D02*
D03*
D25*
X175500Y319750D02*
D03*
X197500D02*
D03*
Y335750D02*
D03*
X175500D02*
D03*
D30*
X401500Y309836D02*
D03*
X396500D02*
D03*
X391500D02*
D03*
X386500D02*
D03*
X381500D02*
D03*
X376500D02*
D03*
X371500D02*
D03*
X366500D02*
D03*
X361500D02*
D03*
X356500D02*
D03*
X351500D02*
D03*
X346500D02*
D03*
Y394164D02*
D03*
X351500D02*
D03*
X356500D02*
D03*
X361500D02*
D03*
X366500D02*
D03*
X371500D02*
D03*
X376500D02*
D03*
X381500D02*
D03*
X386500D02*
D03*
X391500D02*
D03*
X396500D02*
D03*
X401500D02*
D03*
D36*
X332191Y495550D02*
D03*
Y482850D02*
D03*
Y470150D02*
D03*
Y457450D02*
D03*
X260309D02*
D03*
Y470150D02*
D03*
Y482850D02*
D03*
Y495550D02*
D03*
D37*
X408025Y433500D02*
D03*
X388975D02*
D03*
D42*
X480200Y571213D02*
D03*
X492900D02*
D03*
X505600D02*
D03*
X518300D02*
D03*
Y516786D02*
D03*
X505600D02*
D03*
X492900D02*
D03*
X480200D02*
D03*
D51*
X30750Y620750D02*
D03*
Y506250D02*
D03*
D52*
X105750Y356000D02*
D03*
D53*
X47750Y333000D02*
D03*
Y356000D02*
D03*
Y379000D02*
D03*
D54*
X575250Y443000D02*
D03*
Y449500D02*
D03*
Y462500D02*
D03*
Y456000D02*
D03*
Y436500D02*
D03*
D55*
X481500Y433000D02*
D03*
X527500Y448000D02*
D03*
Y443000D02*
D03*
Y438000D02*
D03*
Y433000D02*
D03*
Y428000D02*
D03*
Y423000D02*
D03*
Y418000D02*
D03*
X481500D02*
D03*
Y423000D02*
D03*
Y428000D02*
D03*
Y438000D02*
D03*
Y443000D02*
D03*
Y448000D02*
D03*
D56*
X534000Y303500D02*
D03*
Y313500D02*
D03*
X129250Y344750D02*
D03*
Y355750D02*
D03*
X24500Y322000D02*
D03*
Y333000D02*
D03*
X489500Y387000D02*
D03*
Y398000D02*
D03*
X477250Y488500D02*
D03*
Y478500D02*
D03*
X463750Y477000D02*
D03*
Y467000D02*
D03*
X465750Y406750D02*
D03*
Y417750D02*
D03*
X434500Y376250D02*
D03*
Y387250D02*
D03*
X313750Y327750D02*
D03*
Y316750D02*
D03*
X302250Y327750D02*
D03*
Y316750D02*
D03*
X370500Y428750D02*
D03*
Y439750D02*
D03*
X534000Y292500D02*
D03*
Y282500D02*
D03*
X202000Y361000D02*
D03*
Y372000D02*
D03*
X180750Y364500D02*
D03*
Y375500D02*
D03*
X314250Y398750D02*
D03*
Y388750D02*
D03*
X534000Y334250D02*
D03*
Y324250D02*
D03*
X82750Y427750D02*
D03*
Y416750D02*
D03*
X149000Y427750D02*
D03*
Y416750D02*
D03*
X216000Y321500D02*
D03*
Y332500D02*
D03*
X204000Y464250D02*
D03*
Y453250D02*
D03*
X535500Y540000D02*
D03*
Y530000D02*
D03*
X361750Y281750D02*
D03*
Y291750D02*
D03*
X375000Y281750D02*
D03*
Y291750D02*
D03*
X215000Y555000D02*
D03*
Y566000D02*
D03*
D57*
X361750Y566250D02*
D03*
Y521250D02*
D03*
X451750Y566250D02*
D03*
Y521250D02*
D03*
X234000Y566000D02*
D03*
Y521000D02*
D03*
X324000Y566000D02*
D03*
Y521000D02*
D03*
D58*
X601750Y460750D02*
D03*
Y438250D02*
D03*
D59*
Y489500D02*
D03*
Y409500D02*
D03*
D60*
X576250Y480500D02*
D03*
Y418500D02*
D03*
D61*
X300500Y596000D02*
D03*
Y589000D02*
D03*
D62*
X504500Y433000D02*
D03*
D63*
X489500Y456000D02*
D03*
X494500D02*
D03*
X499500D02*
D03*
X504500D02*
D03*
X509500D02*
D03*
X514500D02*
D03*
X519500D02*
D03*
Y410000D02*
D03*
X514500D02*
D03*
X509500D02*
D03*
X504500D02*
D03*
X499500D02*
D03*
X494500D02*
D03*
X489500D02*
D03*
D64*
X326000Y594000D02*
D03*
X316000D02*
D03*
X139250Y368750D02*
D03*
X129250D02*
D03*
X361500Y593750D02*
D03*
X351500D02*
D03*
X346250Y429000D02*
D03*
X357250D02*
D03*
X368250Y417000D02*
D03*
X357250D02*
D03*
X393750Y292000D02*
D03*
X404750D02*
D03*
X393750Y280750D02*
D03*
X404750D02*
D03*
X396750Y456000D02*
D03*
X407750D02*
D03*
X196500Y386500D02*
D03*
X207500D02*
D03*
X334500Y413000D02*
D03*
X344500D02*
D03*
X95000Y416750D02*
D03*
X106000D02*
D03*
X41750Y459250D02*
D03*
X30750D02*
D03*
X19750Y416500D02*
D03*
X30750D02*
D03*
X263250Y321000D02*
D03*
X274250D02*
D03*
X263250Y331750D02*
D03*
X274250D02*
D03*
X276000Y418750D02*
D03*
X265000D02*
D03*
X195000Y304250D02*
D03*
X184000D02*
D03*
X240750Y433250D02*
D03*
X251750D02*
D03*
X243500Y417250D02*
D03*
X254500D02*
D03*
X402250Y584000D02*
D03*
X392250D02*
D03*
X203750Y566000D02*
D03*
X193750D02*
D03*
X425500Y584000D02*
D03*
X414500D02*
D03*
D65*
X147000Y339250D02*
D03*
Y353250D02*
D03*
X355501Y457999D02*
D03*
Y443999D02*
D03*
X189249Y439251D02*
D03*
Y453251D02*
D03*
X30749Y432251D02*
D03*
Y446251D02*
D03*
X189501Y422749D02*
D03*
Y408749D02*
D03*
D66*
X432250Y493250D02*
D03*
X446250D02*
D03*
Y477000D02*
D03*
X432250D02*
D03*
X68249Y416749D02*
D03*
X54249D02*
D03*
X134749D02*
D03*
X120749D02*
D03*
X207500Y496250D02*
D03*
X193500D02*
D03*
Y479000D02*
D03*
X207500D02*
D03*
X263000Y291750D02*
D03*
X249000D02*
D03*
Y274250D02*
D03*
X263000D02*
D03*
D67*
X254750Y373500D02*
D03*
D68*
X235250Y403250D02*
D03*
X241750D02*
D03*
X248250D02*
D03*
X254750D02*
D03*
X261250D02*
D03*
X267750D02*
D03*
X274250D02*
D03*
Y343750D02*
D03*
X267750D02*
D03*
X261250D02*
D03*
X254750D02*
D03*
X248250D02*
D03*
X241750D02*
D03*
X235250D02*
D03*
D69*
X284500Y393000D02*
D03*
Y386500D02*
D03*
Y380000D02*
D03*
Y373500D02*
D03*
Y367000D02*
D03*
Y360500D02*
D03*
Y354000D02*
D03*
X225000D02*
D03*
Y360500D02*
D03*
Y367000D02*
D03*
Y373500D02*
D03*
Y380000D02*
D03*
Y386500D02*
D03*
Y393000D02*
D03*
D70*
X172139Y408861D02*
D03*
X164361Y416639D02*
D03*
D71*
X493000Y502750D02*
Y516687D01*
X454250Y406750D02*
X465750D01*
X465750Y406750D01*
X381500Y584000D02*
X392250D01*
X392250Y584000D01*
X534000Y334250D02*
Y347500D01*
Y334250D02*
X534000Y334250D01*
X129250Y334000D02*
Y344750D01*
X207750Y304250D02*
X207750Y304250D01*
X195000Y304250D02*
X207750D01*
X394000Y276000D02*
Y280500D01*
Y276000D02*
X401500Y268500D01*
X393750Y280750D02*
X394000Y280500D01*
X393750Y280750D02*
Y292000D01*
X313750Y306500D02*
Y316750D01*
X313750Y316750D01*
X313750Y327750D02*
Y337750D01*
Y327750D02*
X313750Y327750D01*
X377000Y412750D02*
X377250D01*
X227500Y431750D02*
X228041D01*
X229541Y433250D01*
X240750D01*
X285250Y445750D02*
X314250Y416750D01*
X241136Y445750D02*
X285250D01*
X229500Y457386D02*
X241136Y445750D01*
X229500Y457386D02*
Y469035D01*
X392000Y496250D02*
X392750Y495500D01*
X355250Y496250D02*
X392000D01*
X343750Y507750D02*
X355250Y496250D01*
X463750Y496500D02*
X471750Y488500D01*
X449500Y496500D02*
X463750D01*
X446250Y493250D02*
X449500Y496500D01*
X351500Y579750D02*
Y593750D01*
X278500Y464250D02*
Y499000D01*
X273250Y504250D02*
X278500Y499000D01*
X233500Y504250D02*
X273250D01*
X274263Y311015D02*
Y320987D01*
X274250Y321000D02*
X274263Y320987D01*
X192750Y364500D02*
X196000Y361250D01*
X180750Y364500D02*
X192750D01*
X82750Y438750D02*
X82750Y438750D01*
X346250Y429000D02*
X346250Y429000D01*
X346250Y429000D02*
Y436000D01*
X343191Y439059D02*
X346250Y436000D01*
X339441Y439059D02*
X343191D01*
X339250Y439250D02*
X339441Y439059D01*
X355750Y434750D02*
Y443999D01*
X410750Y274750D02*
X418250D01*
X404750Y280750D02*
X410750Y274750D01*
X276000Y418750D02*
Y429000D01*
X265000Y418750D02*
Y429000D01*
Y418750D02*
X265000Y418750D01*
X278500Y464250D02*
X329750Y413000D01*
X188750Y466500D02*
X189021D01*
X191271Y464250D01*
X204000D01*
X343750Y507750D02*
Y533000D01*
X361750Y551000D01*
X376809Y412941D02*
X377000Y412750D01*
X407887Y433587D02*
X408000Y433475D01*
X385000Y456000D02*
X396750D01*
X407887Y433587D02*
Y455863D01*
X407750Y456000D02*
X407887Y455863D01*
X374750Y439750D02*
X381000Y433500D01*
X388975D01*
X388975Y433500D01*
X370500Y439750D02*
X370500Y439750D01*
X374750D01*
X371000Y458000D02*
X371000Y458000D01*
X355501Y458000D02*
X371000D01*
X355501Y457999D02*
X355501Y458000D01*
X355750Y434750D02*
X357250Y433250D01*
Y429000D02*
Y433250D01*
X188750Y466771D02*
X193500Y471521D01*
X188750Y466500D02*
Y466771D01*
X193500Y471521D02*
Y479000D01*
Y496250D01*
X207500D02*
X225500D01*
X219536Y479000D02*
X229500Y469035D01*
X207500Y479000D02*
X219536D01*
X314250Y398750D02*
Y416750D01*
Y398750D02*
X314250Y398750D01*
X329750Y413000D02*
X334500D01*
X225500Y496250D02*
X233500Y504250D01*
X232500Y291750D02*
X249000D01*
X289250Y281250D02*
X361250D01*
X278750Y291750D02*
X289250Y281250D01*
X361250D02*
X361750Y281750D01*
X263000Y291750D02*
X278750D01*
X232500Y274250D02*
X249000D01*
X375000Y278000D02*
Y281750D01*
X371250Y274250D02*
X375000Y278000D01*
X263000Y274250D02*
X371250D01*
X241250Y424500D02*
X243500Y422250D01*
Y419500D02*
Y422250D01*
Y419500D02*
X243500Y419500D01*
Y417250D02*
Y419500D01*
X234250Y424500D02*
X241250D01*
X253000Y321000D02*
X263250D01*
X253250Y331750D02*
X263250D01*
X169750Y364500D02*
X180750D01*
X169500Y375500D02*
X180750D01*
X186500Y386500D02*
X196500D01*
X326000Y586771D02*
X331750Y581021D01*
Y580750D02*
Y581021D01*
X326000Y586771D02*
Y594000D01*
X326000Y594000D02*
X326000Y594000D01*
X351500Y593750D02*
X351500Y593750D01*
X351475Y593775D02*
X351500Y593750D01*
X351475Y593775D02*
Y616725D01*
X351450Y616750D02*
X351475Y616725D01*
X326000Y594000D02*
X326025Y594025D01*
Y616725D01*
X326050Y616750D01*
X401500Y268500D02*
X401750D01*
X313500Y495500D02*
X313550Y495550D01*
X332191D01*
X534000Y273500D02*
Y282500D01*
X505188Y289500D02*
X520500D01*
X505138Y289450D02*
X505188Y289500D01*
X505188Y327500D02*
X521250D01*
X505138Y327550D02*
X505188Y327500D01*
X489500Y377750D02*
Y387000D01*
X147000Y328000D02*
Y339250D01*
X24500Y313000D02*
Y322000D01*
X27000Y379000D02*
X47750D01*
X161750Y335500D02*
X175250D01*
X175500Y335750D01*
X216250Y321250D02*
X225500D01*
X216000Y321500D02*
X216250Y321250D01*
X196000Y361250D02*
X201750D01*
X202000Y361000D01*
X210000Y332500D02*
X216000D01*
X207250Y335250D02*
X210000Y332500D01*
X216000D02*
X216000Y332500D01*
X198000Y335250D02*
X207250D01*
X313750Y327750D02*
X313750Y327750D01*
X445500Y376250D02*
X445500Y376250D01*
X434500Y376250D02*
X445500D01*
X434500Y387250D02*
X445500D01*
X184500Y566250D02*
X193500D01*
X193750Y566000D01*
X420500Y477500D02*
X431750D01*
X432250Y477000D01*
X420750Y493250D02*
X432250D01*
X288500Y579500D02*
X304750D01*
X361500Y593750D02*
X371250D01*
X425500Y584000D02*
X433750D01*
X492900Y516786D02*
X493000Y516687D01*
X450750Y522250D02*
X451750Y521250D01*
X215000Y546750D02*
Y555000D01*
X215000Y555000D01*
X311750Y579500D02*
X315750Y583500D01*
Y593750D01*
X316000Y594000D01*
X304750Y579500D02*
X311750D01*
X300500Y583750D02*
X304750Y579500D01*
X300500Y583750D02*
Y589000D01*
X361750Y551000D02*
Y566250D01*
X147000Y353250D02*
Y365250D01*
X143500Y368750D02*
X147000Y365250D01*
X139250Y368750D02*
X143500D01*
X446250Y477000D02*
X446250Y477000D01*
X463750D01*
X471750Y488500D02*
X477250D01*
X477250Y488500D01*
X234000Y566000D02*
X234000Y566000D01*
X215000Y566000D02*
X234000D01*
X203750D02*
X215000D01*
X203750Y566000D02*
X203750Y566000D01*
X357250Y417000D02*
Y429000D01*
X302250Y316750D02*
X313750D01*
X302250Y327750D02*
X302250Y327750D01*
X313750D01*
X404750Y280750D02*
Y292000D01*
X175750Y307250D02*
Y319500D01*
Y307250D02*
X178500Y304500D01*
X183750D01*
X184000Y304250D01*
X208250Y321500D02*
X216000D01*
X206250Y319500D02*
X208250Y321500D01*
X197750Y319500D02*
X206250D01*
X197500Y319750D02*
X197750Y319500D01*
D72*
X518500Y499500D02*
Y516586D01*
X511750Y492750D02*
X518500Y499500D01*
X489500Y492750D02*
X511750D01*
X382000Y291500D02*
X384500Y289000D01*
X375250Y291500D02*
X382000D01*
X375000Y291750D02*
X375250Y291500D01*
X384500Y269750D02*
Y289000D01*
X477000Y504500D02*
X480250Y507750D01*
X417250Y504500D02*
X477000D01*
X401000Y488250D02*
X417250Y504500D01*
X426150Y289350D02*
X455762D01*
X419750Y295750D02*
X426150Y289350D01*
X428750Y310000D02*
X436750Y302000D01*
X428750Y310000D02*
X439250D01*
X444250Y315000D01*
X436750Y302000D02*
X455712D01*
X455762Y289350D02*
X455862Y289450D01*
X444250Y315000D02*
X455712D01*
X455712Y302000D02*
X455862Y302150D01*
X365500Y488250D02*
X401000D01*
X293750Y291750D02*
X361750D01*
X518300Y516786D02*
X518500Y516586D01*
X480250Y507750D02*
Y516736D01*
X480200Y516786D02*
X480250Y516736D01*
X455712Y315000D02*
X455862Y314850D01*
D73*
X505500Y500000D02*
X505550Y500050D01*
Y516736D01*
X505600Y516786D01*
D74*
X149000Y427750D02*
Y437500D01*
Y427750D02*
X149000Y427750D01*
X249250Y439750D02*
X252000Y437000D01*
X234750Y439750D02*
X249250D01*
X221250Y453250D02*
X234750Y439750D01*
X188998Y439000D02*
X189248Y438750D01*
X207750D01*
X235250Y411250D01*
X82750Y427750D02*
Y438750D01*
X251750Y433250D02*
X252000Y433500D01*
Y437000D01*
X189249Y453251D02*
X189250Y453250D01*
X204000D01*
X204000Y453250D01*
X221250D01*
X41750Y459250D02*
X53250D01*
X19500Y405750D02*
X19625Y405875D01*
Y416375D01*
X19750Y416500D01*
X30750D02*
X30999Y416749D01*
X54249D01*
X30750Y416500D02*
X30750Y416500D01*
X30750Y416500D02*
Y432250D01*
X30749Y432251D02*
X30750Y432250D01*
X30749Y446251D02*
X30750Y446251D01*
Y459250D01*
X30750Y459250D01*
Y506250D01*
X183500Y439000D02*
X188998D01*
X201249Y422749D02*
X201250Y422750D01*
X189501Y422749D02*
X201249D01*
X189501Y408749D02*
X201251D01*
X214500Y395500D01*
X172139Y408861D02*
X189389D01*
X251750Y427000D02*
X254000Y424750D01*
Y417750D02*
Y424750D01*
Y417750D02*
X254500Y417250D01*
X251750Y427000D02*
Y433250D01*
X251750Y433250D02*
X251750Y433250D01*
X174250Y426528D02*
Y429750D01*
X164361Y416639D02*
X174250Y426528D01*
Y429750D02*
X183500Y439000D01*
X149000Y416750D02*
X149110Y416639D01*
X164361D01*
X134750Y416750D02*
X149000D01*
X134749Y416749D02*
X134750Y416750D01*
X120749D02*
X120749Y416749D01*
X106000Y416750D02*
X120749D01*
X106000Y416750D02*
X106000Y416750D01*
X82750Y416750D02*
X95000D01*
X82750Y416750D02*
X82750Y416750D01*
X68250Y416750D02*
X82750D01*
X68249Y416749D02*
X68250Y416750D01*
X30750Y506250D02*
X30750Y506250D01*
D75*
X578000Y557629D02*
Y572500D01*
X567850Y556750D02*
X577121D01*
X554050Y556750D02*
X567850D01*
X567850Y556750D01*
X577121D02*
X578000Y557629D01*
X533250Y537750D02*
X535500Y540000D01*
X533250Y537629D02*
Y537750D01*
X505600Y559900D02*
Y571213D01*
X510500Y537750D02*
X524250D01*
X501000Y555300D02*
X505600Y559900D01*
X501000Y547250D02*
Y555300D01*
X532371Y536750D02*
X533250Y537629D01*
X525250Y536750D02*
X532371D01*
X501000Y547250D02*
X510500Y537750D01*
X524250D02*
X525250Y536750D01*
X577121Y553250D02*
X578000Y552371D01*
X566400Y553250D02*
X577121D01*
X578000Y537500D02*
Y552371D01*
X555500Y553250D02*
X566400D01*
X566400Y553250D01*
X533250Y532250D02*
X535500Y530000D01*
X533250Y532250D02*
Y532371D01*
X497500Y545800D02*
Y555250D01*
X492900Y559850D02*
X497500Y555250D01*
Y545800D02*
X509050Y534250D01*
X492900Y559850D02*
Y571213D01*
X532371Y533250D02*
X533250Y532371D01*
X523800Y533250D02*
X532371D01*
X509050Y534250D02*
X522800D01*
X523800Y533250D01*
X547750Y543250D02*
Y550450D01*
X554050Y556750D01*
X551250Y549000D02*
X555500Y553250D01*
X541250Y536750D02*
X547750Y543250D01*
X538629Y533250D02*
X542700D01*
X551250Y541800D01*
Y549000D01*
X538629Y536750D02*
X541250D01*
X535500Y540000D02*
X537750Y537750D01*
Y537629D02*
Y537750D01*
Y537629D02*
X538629Y536750D01*
X535500Y530000D02*
X537750Y532250D01*
Y532371D01*
X538629Y533250D01*
X530871Y310250D02*
X534061Y313439D01*
X536250Y311250D01*
X534000Y313500D02*
X534061Y313439D01*
X534000Y313500D02*
Y324250D01*
X505238Y314750D02*
X517250D01*
X505138Y314850D02*
X505238Y314750D01*
X521750Y310250D02*
X530871D01*
X517250Y314750D02*
X521750Y310250D01*
X534000Y292500D02*
Y303500D01*
X531750Y305750D02*
Y305871D01*
Y305750D02*
X534000Y303500D01*
X521750Y306750D02*
X530871D01*
X531750Y305871D01*
X517000Y302000D02*
X521750Y306750D01*
X505138Y302150D02*
X505288Y302000D01*
X517000D01*
X536250Y311129D02*
Y311250D01*
Y311129D02*
X537129Y310250D01*
X557750D01*
X557750Y310250D01*
X577121D01*
X578000Y311129D01*
Y326000D01*
X534000Y303500D02*
X536250Y305750D01*
Y305871D01*
X537129Y306750D01*
X556300D01*
X556300Y306750D01*
X577121D01*
X578000Y305871D01*
Y291000D02*
Y305871D01*
D76*
X300575Y597500D02*
Y616675D01*
X300650Y616750D01*
D77*
X323750Y566250D02*
X324000Y566000D01*
D78*
X578000Y537500D02*
D03*
Y572500D02*
D03*
X578000Y291000D02*
D03*
Y326000D02*
D03*
X578000Y607500D02*
D03*
X578000Y361000D02*
D03*
D79*
X351450Y616750D02*
D03*
X326050D02*
D03*
X376850D02*
D03*
D80*
X300650D02*
D03*
D81*
X580250Y176500D02*
D03*
D82*
X40250D02*
D03*
X40650Y285750D02*
D03*
X116850D02*
D03*
D83*
X504500Y433000D02*
D03*
X494500Y443000D02*
D03*
X514500D02*
D03*
Y423000D02*
D03*
X494500D02*
D03*
X269750Y373500D02*
D03*
X254750Y388500D02*
D03*
X239750Y373500D02*
D03*
X254750Y358500D02*
D03*
X269750D02*
D03*
X239750D02*
D03*
X269750Y388500D02*
D03*
X239750D02*
D03*
X254750Y373500D02*
D03*
X493000Y502750D02*
D03*
X545777Y441521D02*
D03*
X545500Y451500D02*
D03*
X456250Y436250D02*
D03*
Y425250D02*
D03*
X454250Y406750D02*
D03*
X505500Y500000D02*
D03*
X348000Y324043D02*
D03*
X367768Y338767D02*
D03*
X381500Y584000D02*
D03*
X534000Y347500D02*
D03*
X128250Y380250D02*
D03*
X114250Y379750D02*
D03*
X99750D02*
D03*
X129250Y334000D02*
D03*
X149000Y437500D02*
D03*
X207750Y304250D02*
D03*
X384500Y269750D02*
D03*
X313750Y306500D02*
D03*
Y337750D02*
D03*
X377250Y412750D02*
D03*
X390000Y380250D02*
D03*
X356017Y332266D02*
D03*
X301750Y358750D02*
D03*
X227500Y431750D02*
D03*
X539000Y430250D02*
D03*
X351500Y579750D02*
D03*
X274263Y311015D02*
D03*
X82750Y438750D02*
D03*
X416000Y410750D02*
D03*
X339250Y439250D02*
D03*
X419750Y295750D02*
D03*
X418250Y274750D02*
D03*
X276000Y429000D02*
D03*
X265000D02*
D03*
X445500Y376250D02*
D03*
X373000Y368750D02*
D03*
X379750Y377000D02*
D03*
X303250Y521250D02*
D03*
X280750D02*
D03*
X258250Y520750D02*
D03*
X156750Y646500D02*
D03*
X406250Y520750D02*
D03*
X430000Y521000D02*
D03*
X383750Y520750D02*
D03*
X385000Y456000D02*
D03*
X371000Y458000D02*
D03*
X365000Y381000D02*
D03*
X348750Y360131D02*
D03*
X428750Y310000D02*
D03*
X391500Y326500D02*
D03*
X378000Y326750D02*
D03*
X188750Y466500D02*
D03*
X365500Y488250D02*
D03*
X232500Y291750D02*
D03*
X293750D02*
D03*
X232500Y274250D02*
D03*
X43250Y476500D02*
D03*
X21750D02*
D03*
X19500Y405750D02*
D03*
X234250Y424500D02*
D03*
X253000Y321000D02*
D03*
X253250Y331750D02*
D03*
X169750Y364500D02*
D03*
X169500Y375500D02*
D03*
X186500Y386500D02*
D03*
X465250Y446250D02*
D03*
X295500Y351000D02*
D03*
X295000Y367000D02*
D03*
X317250D02*
D03*
X401750Y268500D02*
D03*
X313500Y495500D02*
D03*
X534000Y273500D02*
D03*
X520500Y289500D02*
D03*
X521250Y327500D02*
D03*
X489500Y377750D02*
D03*
X53250Y459250D02*
D03*
X201250Y422750D02*
D03*
X147000Y328000D02*
D03*
X24500Y313000D02*
D03*
X27000Y379000D02*
D03*
X161750Y335500D02*
D03*
X225500Y321250D02*
D03*
X445500Y387250D02*
D03*
X184500Y566250D02*
D03*
X420500Y477500D02*
D03*
X420750Y493250D02*
D03*
X288500Y579500D02*
D03*
X371250Y593750D02*
D03*
X433750Y584000D02*
D03*
X215000Y546750D02*
D03*
X435250Y334000D02*
D03*
X331750Y580750D02*
D03*
X392750Y495500D02*
D03*
X460500Y486500D02*
D03*
X246250Y476250D02*
D03*
X246500Y494250D02*
D03*
Y459500D02*
D03*
X489500Y492750D02*
D03*
X440250Y453750D02*
D03*
X509500Y469750D02*
D03*
X156750Y626500D02*
D03*
Y606500D02*
D03*
Y586500D02*
D03*
Y566500D02*
D03*
Y546500D02*
D03*
Y526500D02*
D03*
Y506500D02*
D03*
Y486500D02*
D03*
X141750Y476500D02*
D03*
X121750D02*
D03*
X101750D02*
D03*
X81500D02*
D03*
X61750D02*
D03*
X6750D02*
D03*
D84*
X589500Y391500D02*
D03*
X607000Y391750D02*
D03*
X573500Y392000D02*
D03*
X556500Y485250D02*
D03*
Y498250D02*
D03*
X401750Y466750D02*
D03*
M02*
